<svg width="166" height="33" viewBox="0 0 166 33" fill="none" xmlns="http://www.w3.org/2000/svg">
<path d="M37.4078 32.7925H50.3256L18.3257 0.79248H5.40784L37.4078 32.7925Z" fill="#94A3B8"/>
<path d="M24.9622 0.792482L55.8095 31.6398V0.79248H47.4617V10.5316L37.7225 0.79248L24.9622 0.792482Z" fill="#94A3B8"/>
<path d="M0 1.86377V32.7924H8.34782V23.0532L18.0869 32.7924H30.9287L0 1.86377Z" fill="#94A3B8"/>
<path d="M72.2705 10.6479L67.6299 24.7925H63.8916L70.2314 7.72998H72.6104L72.2705 10.6479ZM76.126 24.7925L71.4736 10.6479L71.0986 7.72998H73.501L79.876 24.7925H76.126ZM75.915 18.4409V21.1948H66.9033V18.4409H75.915ZM84.6221 14.8784V24.7925H81.2471V12.1128H84.4229L84.6221 14.8784ZM88.4424 12.0308L88.3838 15.1597C88.2197 15.1362 88.0205 15.1167 87.7861 15.1011C87.5596 15.0776 87.3525 15.0659 87.165 15.0659C86.6885 15.0659 86.2744 15.1284 85.9229 15.2534C85.5791 15.3706 85.29 15.5464 85.0557 15.7808C84.8291 16.0151 84.6572 16.3003 84.54 16.6362C84.4307 16.9722 84.3682 17.355 84.3525 17.7847L83.6729 17.5737C83.6729 16.7534 83.7549 15.9995 83.9189 15.312C84.083 14.6167 84.3213 14.0112 84.6338 13.4956C84.9541 12.98 85.3447 12.5815 85.8057 12.3003C86.2666 12.019 86.7939 11.8784 87.3877 11.8784C87.5752 11.8784 87.7666 11.894 87.9619 11.9253C88.1572 11.9487 88.3174 11.9839 88.4424 12.0308ZM96.833 12.1128V14.5034H89.4502V12.1128H96.833ZM91.2783 8.98389H94.6533V20.9722C94.6533 21.3394 94.7002 21.6206 94.7939 21.8159C94.8955 22.0112 95.0439 22.1479 95.2393 22.2261C95.4346 22.2964 95.6807 22.3315 95.9775 22.3315C96.1885 22.3315 96.376 22.3237 96.54 22.3081C96.7119 22.2847 96.8564 22.2612 96.9736 22.2378L96.9854 24.7222C96.6963 24.8159 96.3838 24.8901 96.0479 24.9448C95.7119 24.9995 95.3408 25.0269 94.9346 25.0269C94.1924 25.0269 93.5439 24.9058 92.9893 24.6636C92.4424 24.4136 92.0205 24.0151 91.7236 23.4683C91.4268 22.9214 91.2783 22.2026 91.2783 21.312V8.98389ZM105.118 21.23L109.138 7.72998H113.052L107.11 24.7925H104.532L105.118 21.23ZM101.415 7.72998L105.423 21.23L106.032 24.7925H103.431L97.5244 7.72998H101.415ZM119.755 25.0269C118.771 25.0269 117.888 24.8706 117.106 24.5581C116.325 24.2378 115.661 23.7964 115.114 23.2339C114.575 22.6714 114.161 22.019 113.872 21.2769C113.583 20.5269 113.438 19.73 113.438 18.8862V18.4175C113.438 17.4565 113.575 16.5776 113.849 15.7808C114.122 14.9839 114.513 14.2925 115.021 13.7065C115.536 13.1206 116.161 12.6714 116.896 12.3589C117.63 12.0386 118.458 11.8784 119.38 11.8784C120.278 11.8784 121.075 12.0269 121.771 12.3237C122.466 12.6206 123.048 13.0425 123.517 13.5894C123.993 14.1362 124.353 14.7925 124.595 15.5581C124.837 16.3159 124.958 17.1597 124.958 18.0894V19.4956H114.88V17.2456H121.642V16.9878C121.642 16.519 121.556 16.1011 121.384 15.7339C121.22 15.3589 120.97 15.062 120.634 14.8433C120.298 14.6245 119.868 14.5151 119.345 14.5151C118.899 14.5151 118.517 14.6128 118.196 14.8081C117.876 15.0034 117.614 15.2769 117.411 15.6284C117.216 15.98 117.067 16.394 116.966 16.8706C116.872 17.3394 116.825 17.855 116.825 18.4175V18.8862C116.825 19.394 116.896 19.8628 117.036 20.2925C117.185 20.7222 117.392 21.0933 117.657 21.4058C117.931 21.7183 118.259 21.9604 118.642 22.1323C119.032 22.3042 119.474 22.3901 119.966 22.3901C120.575 22.3901 121.142 22.2729 121.665 22.0386C122.196 21.7964 122.653 21.4331 123.036 20.9487L124.677 22.73C124.411 23.1128 124.048 23.48 123.587 23.8315C123.134 24.1831 122.587 24.4722 121.946 24.6987C121.306 24.9175 120.575 25.0269 119.755 25.0269ZM130.185 14.8198V24.7925H126.81V12.1128H129.974L130.185 14.8198ZM129.692 18.0073H128.778C128.778 17.0698 128.899 16.2261 129.142 15.4761C129.384 14.7183 129.724 14.0737 130.161 13.5425C130.599 13.0034 131.118 12.5933 131.72 12.312C132.329 12.0229 133.009 11.8784 133.759 11.8784C134.353 11.8784 134.896 11.9644 135.388 12.1362C135.88 12.3081 136.302 12.5815 136.653 12.9565C137.013 13.3315 137.286 13.8276 137.474 14.4448C137.669 15.062 137.767 15.8159 137.767 16.7065V24.7925H134.368V16.6948C134.368 16.1323 134.29 15.6948 134.134 15.3823C133.978 15.0698 133.747 14.8511 133.442 14.7261C133.146 14.5933 132.778 14.5269 132.341 14.5269C131.888 14.5269 131.493 14.6167 131.157 14.7964C130.829 14.9761 130.556 15.2261 130.337 15.5464C130.126 15.8589 129.966 16.2261 129.856 16.6479C129.747 17.0698 129.692 17.5229 129.692 18.0073ZM147.833 21.7573V12.1128H151.208V24.7925H148.032L147.833 21.7573ZM148.208 19.1558L149.204 19.1323C149.204 19.9761 149.106 20.7612 148.911 21.4878C148.716 22.2065 148.423 22.8315 148.032 23.3628C147.642 23.8862 147.149 24.2964 146.556 24.5933C145.962 24.8823 145.263 25.0269 144.458 25.0269C143.841 25.0269 143.271 24.9409 142.747 24.769C142.231 24.5894 141.786 24.312 141.411 23.937C141.044 23.5542 140.755 23.0659 140.544 22.4722C140.341 21.8706 140.239 21.1479 140.239 20.3042V12.1128H143.614V20.3276C143.614 20.7026 143.657 21.019 143.743 21.2769C143.837 21.5347 143.966 21.7456 144.13 21.9097C144.294 22.0737 144.485 22.1909 144.704 22.2612C144.931 22.3315 145.181 22.3667 145.454 22.3667C146.149 22.3667 146.696 22.2261 147.095 21.9448C147.501 21.6636 147.786 21.2808 147.95 20.7964C148.122 20.3042 148.208 19.7573 148.208 19.1558ZM159.622 25.0269C158.638 25.0269 157.755 24.8706 156.974 24.5581C156.192 24.2378 155.528 23.7964 154.981 23.2339C154.442 22.6714 154.028 22.019 153.739 21.2769C153.45 20.5269 153.306 19.73 153.306 18.8862V18.4175C153.306 17.4565 153.442 16.5776 153.716 15.7808C153.989 14.9839 154.38 14.2925 154.888 13.7065C155.403 13.1206 156.028 12.6714 156.763 12.3589C157.497 12.0386 158.325 11.8784 159.247 11.8784C160.146 11.8784 160.942 12.0269 161.638 12.3237C162.333 12.6206 162.915 13.0425 163.384 13.5894C163.86 14.1362 164.22 14.7925 164.462 15.5581C164.704 16.3159 164.825 17.1597 164.825 18.0894V19.4956H154.747V17.2456H161.509V16.9878C161.509 16.519 161.423 16.1011 161.251 15.7339C161.087 15.3589 160.837 15.062 160.501 14.8433C160.165 14.6245 159.735 14.5151 159.212 14.5151C158.767 14.5151 158.384 14.6128 158.063 14.8081C157.743 15.0034 157.481 15.2769 157.278 15.6284C157.083 15.98 156.935 16.394 156.833 16.8706C156.739 17.3394 156.692 17.855 156.692 18.4175V18.8862C156.692 19.394 156.763 19.8628 156.903 20.2925C157.052 20.7222 157.259 21.0933 157.524 21.4058C157.798 21.7183 158.126 21.9604 158.509 22.1323C158.899 22.3042 159.341 22.3901 159.833 22.3901C160.442 22.3901 161.009 22.2729 161.532 22.0386C162.063 21.7964 162.521 21.4331 162.903 20.9487L164.544 22.73C164.278 23.1128 163.915 23.48 163.454 23.8315C163.001 24.1831 162.454 24.4722 161.813 24.6987C161.173 24.9175 160.442 25.0269 159.622 25.0269Z" fill="#94A3B8"/>
</svg>