<svg width="132" height="31" viewBox="0 0 132 31" fill="none" xmlns="http://www.w3.org/2000/svg">
<path d="M4.75 9.95557V30.1118H0.25V6.70557H4.42188L4.75 9.95557ZM15.4531 14.9712V15.2993C15.4531 16.5285 15.3073 17.6691 15.0156 18.7212C14.7344 19.7733 14.3177 20.6899 13.7656 21.4712C13.2135 22.242 12.526 22.8462 11.7031 23.2837C10.8906 23.7108 9.95312 23.9243 8.89062 23.9243C7.85938 23.9243 6.96354 23.716 6.20312 23.2993C5.44271 22.8826 4.80208 22.2993 4.28125 21.5493C3.77083 20.7889 3.35938 19.9087 3.04688 18.9087C2.73438 17.9087 2.49479 16.8358 2.32812 15.6899V14.8306C2.49479 13.6014 2.73438 12.4764 3.04688 11.4556C3.35938 10.4243 3.77083 9.53369 4.28125 8.78369C4.80208 8.02327 5.4375 7.43473 6.1875 7.01807C6.94792 6.6014 7.83854 6.39307 8.85938 6.39307C9.93229 6.39307 10.875 6.59619 11.6875 7.00244C12.5104 7.40869 13.1979 7.99202 13.75 8.75244C14.3125 9.51286 14.7344 10.4191 15.0156 11.4712C15.3073 12.5233 15.4531 13.6899 15.4531 14.9712ZM10.9375 15.2993V14.9712C10.9375 14.2524 10.875 13.591 10.75 12.9868C10.6354 12.3722 10.4479 11.8358 10.1875 11.3774C9.9375 10.9191 9.60417 10.5649 9.1875 10.3149C8.78125 10.0545 8.28646 9.92432 7.70312 9.92432C7.08854 9.92432 6.5625 10.0233 6.125 10.2212C5.69792 10.4191 5.34896 10.7056 5.07812 11.0806C4.80729 11.4556 4.60417 11.9035 4.46875 12.4243C4.33333 12.9451 4.25 13.5337 4.21875 14.1899V16.3618C4.27083 17.1326 4.41667 17.8254 4.65625 18.4399C4.89583 19.0441 5.26562 19.5233 5.76562 19.8774C6.26562 20.2316 6.92188 20.4087 7.73438 20.4087C8.32812 20.4087 8.82812 20.2785 9.23438 20.0181C9.64062 19.7472 9.96875 19.3774 10.2188 18.9087C10.4792 18.4399 10.6615 17.8983 10.7656 17.2837C10.8802 16.6691 10.9375 16.0076 10.9375 15.2993ZM27.375 19.7993V12.2681C27.375 11.7264 27.2865 11.2629 27.1094 10.8774C26.9323 10.4816 26.6562 10.1743 26.2812 9.95557C25.9167 9.73682 25.4427 9.62744 24.8594 9.62744C24.3594 9.62744 23.9271 9.71598 23.5625 9.89307C23.1979 10.0597 22.9167 10.3045 22.7188 10.6274C22.5208 10.9399 22.4219 11.3097 22.4219 11.7368H17.9219C17.9219 11.0181 18.0885 10.3358 18.4219 9.68994C18.7552 9.04411 19.2396 8.4764 19.875 7.98682C20.5104 7.48682 21.2656 7.09619 22.1406 6.81494C23.026 6.53369 24.0156 6.39307 25.1094 6.39307C26.4219 6.39307 27.5885 6.61182 28.6094 7.04932C29.6302 7.48682 30.4323 8.14307 31.0156 9.01807C31.6094 9.89307 31.9062 10.9868 31.9062 12.2993V19.5337C31.9062 20.4608 31.9635 21.2212 32.0781 21.8149C32.1927 22.3983 32.3594 22.9087 32.5781 23.3462V23.6118H28.0312C27.8125 23.1535 27.6458 22.5806 27.5312 21.8931C27.4271 21.1951 27.375 20.4972 27.375 19.7993ZM27.9688 13.3149L28 15.8618H25.4844C24.8906 15.8618 24.375 15.9295 23.9375 16.0649C23.5 16.2004 23.1406 16.3931 22.8594 16.6431C22.5781 16.8826 22.3698 17.1639 22.2344 17.4868C22.1094 17.8097 22.0469 18.1639 22.0469 18.5493C22.0469 18.9347 22.1354 19.2837 22.3125 19.5962C22.4896 19.8983 22.7448 20.1379 23.0781 20.3149C23.4115 20.4816 23.8021 20.5649 24.25 20.5649C24.9271 20.5649 25.5156 20.4295 26.0156 20.1587C26.5156 19.8879 26.901 19.5545 27.1719 19.1587C27.4531 18.7629 27.599 18.3879 27.6094 18.0337L28.7969 19.9399C28.6302 20.367 28.401 20.8097 28.1094 21.2681C27.8281 21.7264 27.4688 22.1587 27.0312 22.5649C26.5938 22.9608 26.0677 23.2889 25.4531 23.5493C24.8385 23.7993 24.1094 23.9243 23.2656 23.9243C22.1927 23.9243 21.2188 23.7108 20.3438 23.2837C19.4792 22.8462 18.7917 22.2472 18.2812 21.4868C17.7812 20.716 17.5312 19.841 17.5312 18.8618C17.5312 17.9764 17.6979 17.1899 18.0312 16.5024C18.3646 15.8149 18.8542 15.2368 19.5 14.7681C20.1562 14.2889 20.974 13.9295 21.9531 13.6899C22.9323 13.4399 24.0677 13.3149 25.3594 13.3149H27.9688ZM40.1406 21.7056L44.625 6.70557H49.4531L42.6562 26.1587C42.5104 26.5858 42.3125 27.0441 42.0625 27.5337C41.8229 28.0233 41.4948 28.4868 41.0781 28.9243C40.6719 29.3722 40.1562 29.7368 39.5312 30.0181C38.9167 30.2993 38.1615 30.4399 37.2656 30.4399C36.8385 30.4399 36.4896 30.4139 36.2188 30.3618C35.9479 30.3097 35.625 30.2368 35.25 30.1431V26.8462C35.3646 26.8462 35.4844 26.8462 35.6094 26.8462C35.7344 26.8566 35.8542 26.8618 35.9688 26.8618C36.5625 26.8618 37.0469 26.7941 37.4219 26.6587C37.7969 26.5233 38.099 26.3149 38.3281 26.0337C38.5573 25.7629 38.7396 25.4087 38.875 24.9712L40.1406 21.7056ZM38.2656 6.70557L41.9375 18.9556L42.5781 23.7212L39.5156 24.0493L33.4375 6.70557H38.2656ZM63.375 17.6587C63.375 17.2524 63.3125 16.8879 63.1875 16.5649C63.0729 16.2316 62.8542 15.9295 62.5312 15.6587C62.2083 15.3774 61.7552 15.1014 61.1719 14.8306C60.5885 14.5597 59.8333 14.2785 58.9062 13.9868C57.875 13.6535 56.8958 13.2785 55.9688 12.8618C55.0521 12.4451 54.2396 11.9608 53.5312 11.4087C52.8333 10.8462 52.2812 10.1951 51.875 9.45557C51.4792 8.71598 51.2812 7.85661 51.2812 6.87744C51.2812 5.92952 51.4896 5.07015 51.9062 4.29932C52.3229 3.51807 52.9062 2.8514 53.6562 2.29932C54.4062 1.73682 55.2917 1.30452 56.3125 1.00244C57.3438 0.700358 58.474 0.549316 59.7031 0.549316C61.3802 0.549316 62.8438 0.8514 64.0938 1.45557C65.3438 2.05973 66.3125 2.88786 67 3.93994C67.6979 4.99202 68.0469 6.19515 68.0469 7.54932H63.3906C63.3906 6.88265 63.25 6.29932 62.9688 5.79932C62.6979 5.2889 62.2812 4.88786 61.7188 4.59619C61.1667 4.30452 60.4688 4.15869 59.625 4.15869C58.8125 4.15869 58.1354 4.28369 57.5938 4.53369C57.0521 4.77327 56.6458 5.1014 56.375 5.51807C56.1042 5.92432 55.9688 6.38265 55.9688 6.89307C55.9688 7.27848 56.0625 7.62744 56.25 7.93994C56.4479 8.25244 56.7396 8.54411 57.125 8.81494C57.5104 9.08577 57.9844 9.34098 58.5469 9.58057C59.1094 9.82015 59.7604 10.0545 60.5 10.2837C61.7396 10.6587 62.8281 11.0806 63.7656 11.5493C64.7135 12.0181 65.5052 12.5441 66.1406 13.1274C66.776 13.7108 67.2552 14.3722 67.5781 15.1118C67.901 15.8514 68.0625 16.6899 68.0625 17.6274C68.0625 18.617 67.8698 19.5024 67.4844 20.2837C67.099 21.0649 66.5417 21.7264 65.8125 22.2681C65.0833 22.8097 64.2135 23.2212 63.2031 23.5024C62.1927 23.7837 61.0625 23.9243 59.8125 23.9243C58.6875 23.9243 57.5781 23.7785 56.4844 23.4868C55.3906 23.1847 54.3958 22.7316 53.5 22.1274C52.6146 21.5233 51.9062 20.7524 51.375 19.8149C50.8438 18.8774 50.5781 17.7681 50.5781 16.4868H55.2812C55.2812 17.1951 55.3906 17.7941 55.6094 18.2837C55.8281 18.7733 56.1354 19.1691 56.5312 19.4712C56.9375 19.7733 57.4167 19.992 57.9688 20.1274C58.5312 20.2629 59.1458 20.3306 59.8125 20.3306C60.625 20.3306 61.2917 20.216 61.8125 19.9868C62.3438 19.7576 62.7344 19.4399 62.9844 19.0337C63.2448 18.6274 63.375 18.1691 63.375 17.6587ZM75.9844 21.7056L80.4688 6.70557H85.2969L78.5 26.1587C78.3542 26.5858 78.1562 27.0441 77.9062 27.5337C77.6667 28.0233 77.3385 28.4868 76.9219 28.9243C76.5156 29.3722 76 29.7368 75.375 30.0181C74.7604 30.2993 74.0052 30.4399 73.1094 30.4399C72.6823 30.4399 72.3333 30.4139 72.0625 30.3618C71.7917 30.3097 71.4688 30.2368 71.0938 30.1431V26.8462C71.2083 26.8462 71.3281 26.8462 71.4531 26.8462C71.5781 26.8566 71.6979 26.8618 71.8125 26.8618C72.4062 26.8618 72.8906 26.7941 73.2656 26.6587C73.6406 26.5233 73.9427 26.3149 74.1719 26.0337C74.401 25.7629 74.5833 25.4087 74.7188 24.9712L75.9844 21.7056ZM74.1094 6.70557L77.7812 18.9556L78.4219 23.7212L75.3594 24.0493L69.2812 6.70557H74.1094ZM91.5 10.3149V23.6118H87V6.70557H91.2188L91.5 10.3149ZM90.8438 14.5649H89.625C89.625 13.3149 89.7865 12.1899 90.1094 11.1899C90.4323 10.1795 90.8854 9.32015 91.4688 8.61182C92.0521 7.89307 92.7448 7.34619 93.5469 6.97119C94.3594 6.58577 95.2656 6.39307 96.2656 6.39307C97.0573 6.39307 97.7812 6.50765 98.4375 6.73682C99.0938 6.96598 99.6562 7.33057 100.125 7.83057C100.604 8.33057 100.969 8.99202 101.219 9.81494C101.479 10.6379 101.609 11.6431 101.609 12.8306V23.6118H97.0781V12.8149C97.0781 12.0649 96.974 11.4816 96.7656 11.0649C96.5573 10.6483 96.25 10.3566 95.8438 10.1899C95.4479 10.0129 94.9583 9.92432 94.375 9.92432C93.7708 9.92432 93.2448 10.0441 92.7969 10.2837C92.3594 10.5233 91.9948 10.8566 91.7031 11.2837C91.4219 11.7004 91.2083 12.1899 91.0625 12.7524C90.9167 13.3149 90.8438 13.9191 90.8438 14.5649ZM112.016 20.4087C112.568 20.4087 113.057 20.3045 113.484 20.0962C113.911 19.8774 114.245 19.5754 114.484 19.1899C114.734 18.7941 114.865 18.3306 114.875 17.7993H119.109C119.099 18.9868 118.781 20.0441 118.156 20.9712C117.531 21.8879 116.693 22.6118 115.641 23.1431C114.589 23.6639 113.411 23.9243 112.109 23.9243C110.797 23.9243 109.651 23.7056 108.672 23.2681C107.703 22.8306 106.896 22.2264 106.25 21.4556C105.604 20.6743 105.12 19.7681 104.797 18.7368C104.474 17.6951 104.312 16.5806 104.312 15.3931V14.9399C104.312 13.742 104.474 12.6274 104.797 11.5962C105.12 10.5545 105.604 9.64827 106.25 8.87744C106.896 8.09619 107.703 7.48682 108.672 7.04932C109.641 6.61182 110.776 6.39307 112.078 6.39307C113.464 6.39307 114.677 6.65869 115.719 7.18994C116.771 7.72119 117.594 8.48161 118.188 9.47119C118.792 10.4504 119.099 11.6118 119.109 12.9556H114.875C114.865 12.3931 114.745 11.8826 114.516 11.4243C114.297 10.966 113.974 10.6014 113.547 10.3306C113.13 10.0493 112.615 9.90869 112 9.90869C111.344 9.90869 110.807 10.0493 110.391 10.3306C109.974 10.6014 109.651 10.9764 109.422 11.4556C109.193 11.9243 109.031 12.4608 108.938 13.0649C108.854 13.6587 108.812 14.2837 108.812 14.9399V15.3931C108.812 16.0493 108.854 16.6795 108.938 17.2837C109.021 17.8879 109.177 18.4243 109.406 18.8931C109.646 19.3618 109.974 19.7316 110.391 20.0024C110.807 20.2733 111.349 20.4087 112.016 20.4087ZM126.219 10.3931V23.6118H121.719V6.70557H125.953L126.219 10.3931ZM131.312 6.59619L131.234 10.7681C131.016 10.7368 130.75 10.7108 130.438 10.6899C130.135 10.6587 129.859 10.6431 129.609 10.6431C128.974 10.6431 128.422 10.7264 127.953 10.8931C127.495 11.0493 127.109 11.2837 126.797 11.5962C126.495 11.9087 126.266 12.2889 126.109 12.7368C125.964 13.1847 125.88 13.6951 125.859 14.2681L124.953 13.9868C124.953 12.8931 125.062 11.8879 125.281 10.9712C125.5 10.0441 125.818 9.23682 126.234 8.54932C126.661 7.86182 127.182 7.33057 127.797 6.95557C128.411 6.58057 129.115 6.39307 129.906 6.39307C130.156 6.39307 130.411 6.4139 130.672 6.45557C130.932 6.48682 131.146 6.53369 131.312 6.59619Z" fill="white"/>
</svg>
