<svg width="174" height="35" viewBox="0 0 174 35" fill="none" xmlns="http://www.w3.org/2000/svg">
<path d="M10.8906 19.8906H5.09375V16.2344H10.8906C11.7865 16.2344 12.5156 16.0885 13.0781 15.7969C13.6406 15.4948 14.0521 15.0781 14.3125 14.5469C14.5729 14.0156 14.7031 13.4167 14.7031 12.75C14.7031 12.0729 14.5729 11.4427 14.3125 10.8594C14.0521 10.276 13.6406 9.80729 13.0781 9.45312C12.5156 9.09896 11.7865 8.92188 10.8906 8.92188H6.71875V28H2.03125V5.25H10.8906C12.6719 5.25 14.1979 5.57292 15.4688 6.21875C16.75 6.85417 17.7292 7.73438 18.4062 8.85938C19.0833 9.98438 19.4219 11.2708 19.4219 12.7188C19.4219 14.1875 19.0833 15.4583 18.4062 16.5312C17.7292 17.6042 16.75 18.4323 15.4688 19.0156C14.1979 19.599 12.6719 19.8906 10.8906 19.8906ZM31.3125 24.1875V16.6562C31.3125 16.1146 31.224 15.651 31.0469 15.2656C30.8698 14.8698 30.5938 14.5625 30.2188 14.3438C29.8542 14.125 29.3802 14.0156 28.7969 14.0156C28.2969 14.0156 27.8646 14.1042 27.5 14.2812C27.1354 14.4479 26.8542 14.6927 26.6562 15.0156C26.4583 15.3281 26.3594 15.6979 26.3594 16.125H21.8594C21.8594 15.4062 22.026 14.724 22.3594 14.0781C22.6927 13.4323 23.1771 12.8646 23.8125 12.375C24.4479 11.875 25.2031 11.4844 26.0781 11.2031C26.9635 10.9219 27.9531 10.7812 29.0469 10.7812C30.3594 10.7812 31.526 11 32.5469 11.4375C33.5677 11.875 34.3698 12.5312 34.9531 13.4062C35.5469 14.2812 35.8438 15.375 35.8438 16.6875V23.9219C35.8438 24.849 35.901 25.6094 36.0156 26.2031C36.1302 26.7865 36.2969 27.2969 36.5156 27.7344V28H31.9688C31.75 27.5417 31.5833 26.9688 31.4688 26.2812C31.3646 25.5833 31.3125 24.8854 31.3125 24.1875ZM31.9062 17.7031L31.9375 20.25H29.4219C28.8281 20.25 28.3125 20.3177 27.875 20.4531C27.4375 20.5885 27.0781 20.7812 26.7969 21.0312C26.5156 21.2708 26.3073 21.5521 26.1719 21.875C26.0469 22.1979 25.9844 22.5521 25.9844 22.9375C25.9844 23.3229 26.0729 23.6719 26.25 23.9844C26.4271 24.2865 26.6823 24.526 27.0156 24.7031C27.349 24.8698 27.7396 24.9531 28.1875 24.9531C28.8646 24.9531 29.4531 24.8177 29.9531 24.5469C30.4531 24.276 30.8385 23.9427 31.1094 23.5469C31.3906 23.151 31.5365 22.776 31.5469 22.4219L32.7344 24.3281C32.5677 24.7552 32.3385 25.1979 32.0469 25.6562C31.7656 26.1146 31.4062 26.5469 30.9688 26.9531C30.5312 27.349 30.0052 27.6771 29.3906 27.9375C28.776 28.1875 28.0469 28.3125 27.2031 28.3125C26.1302 28.3125 25.1562 28.099 24.2812 27.6719C23.4167 27.2344 22.7292 26.6354 22.2188 25.875C21.7188 25.1042 21.4688 24.2292 21.4688 23.25C21.4688 22.3646 21.6354 21.5781 21.9688 20.8906C22.3021 20.2031 22.7917 19.625 23.4375 19.1562C24.0938 18.6771 24.9115 18.3177 25.8906 18.0781C26.8698 17.8281 28.0052 17.7031 29.2969 17.7031H31.9062ZM44.0781 26.0938L48.5625 11.0938H53.3906L46.5938 30.5469C46.4479 30.974 46.25 31.4323 46 31.9219C45.7604 32.4115 45.4323 32.875 45.0156 33.3125C44.6094 33.7604 44.0938 34.125 43.4688 34.4062C42.8542 34.6875 42.099 34.8281 41.2031 34.8281C40.776 34.8281 40.4271 34.8021 40.1562 34.75C39.8854 34.6979 39.5625 34.625 39.1875 34.5312V31.2344C39.3021 31.2344 39.4219 31.2344 39.5469 31.2344C39.6719 31.2448 39.7917 31.25 39.9062 31.25C40.5 31.25 40.9844 31.1823 41.3594 31.0469C41.7344 30.9115 42.0365 30.7031 42.2656 30.4219C42.4948 30.151 42.6771 29.7969 42.8125 29.3594L44.0781 26.0938ZM42.2031 11.0938L45.875 23.3438L46.5156 28.1094L43.4531 28.4375L37.375 11.0938H42.2031ZM67.3125 22.0469C67.3125 21.6406 67.25 21.276 67.125 20.9531C67.0104 20.6198 66.7917 20.3177 66.4688 20.0469C66.1458 19.7656 65.6927 19.4896 65.1094 19.2188C64.526 18.9479 63.7708 18.6667 62.8438 18.375C61.8125 18.0417 60.8333 17.6667 59.9062 17.25C58.9896 16.8333 58.1771 16.349 57.4688 15.7969C56.7708 15.2344 56.2188 14.5833 55.8125 13.8438C55.4167 13.1042 55.2188 12.2448 55.2188 11.2656C55.2188 10.3177 55.4271 9.45833 55.8438 8.6875C56.2604 7.90625 56.8438 7.23958 57.5938 6.6875C58.3438 6.125 59.2292 5.69271 60.25 5.39062C61.2812 5.08854 62.4115 4.9375 63.6406 4.9375C65.3177 4.9375 66.7812 5.23958 68.0312 5.84375C69.2812 6.44792 70.25 7.27604 70.9375 8.32812C71.6354 9.38021 71.9844 10.5833 71.9844 11.9375H67.3281C67.3281 11.2708 67.1875 10.6875 66.9062 10.1875C66.6354 9.67708 66.2188 9.27604 65.6562 8.98438C65.1042 8.69271 64.4062 8.54688 63.5625 8.54688C62.75 8.54688 62.0729 8.67188 61.5312 8.92188C60.9896 9.16146 60.5833 9.48958 60.3125 9.90625C60.0417 10.3125 59.9062 10.7708 59.9062 11.2812C59.9062 11.6667 60 12.0156 60.1875 12.3281C60.3854 12.6406 60.6771 12.9323 61.0625 13.2031C61.4479 13.474 61.9219 13.7292 62.4844 13.9688C63.0469 14.2083 63.6979 14.4427 64.4375 14.6719C65.6771 15.0469 66.7656 15.4688 67.7031 15.9375C68.651 16.4062 69.4427 16.9323 70.0781 17.5156C70.7135 18.099 71.1927 18.7604 71.5156 19.5C71.8385 20.2396 72 21.0781 72 22.0156C72 23.0052 71.8073 23.8906 71.4219 24.6719C71.0365 25.4531 70.4792 26.1146 69.75 26.6562C69.0208 27.1979 68.151 27.6094 67.1406 27.8906C66.1302 28.1719 65 28.3125 63.75 28.3125C62.625 28.3125 61.5156 28.1667 60.4219 27.875C59.3281 27.5729 58.3333 27.1198 57.4375 26.5156C56.5521 25.9115 55.8438 25.1406 55.3125 24.2031C54.7812 23.2656 54.5156 22.1562 54.5156 20.875H59.2188C59.2188 21.5833 59.3281 22.1823 59.5469 22.6719C59.7656 23.1615 60.0729 23.5573 60.4688 23.8594C60.875 24.1615 61.3542 24.3802 61.9062 24.5156C62.4688 24.651 63.0833 24.7188 63.75 24.7188C64.5625 24.7188 65.2292 24.6042 65.75 24.375C66.2812 24.1458 66.6719 23.8281 66.9219 23.4219C67.1823 23.0156 67.3125 22.5573 67.3125 22.0469ZM79.9219 26.0938L84.4062 11.0938H89.2344L82.4375 30.5469C82.2917 30.974 82.0938 31.4323 81.8438 31.9219C81.6042 32.4115 81.276 32.875 80.8594 33.3125C80.4531 33.7604 79.9375 34.125 79.3125 34.4062C78.6979 34.6875 77.9427 34.8281 77.0469 34.8281C76.6198 34.8281 76.2708 34.8021 76 34.75C75.7292 34.6979 75.4062 34.625 75.0312 34.5312V31.2344C75.1458 31.2344 75.2656 31.2344 75.3906 31.2344C75.5156 31.2448 75.6354 31.25 75.75 31.25C76.3438 31.25 76.8281 31.1823 77.2031 31.0469C77.5781 30.9115 77.8802 30.7031 78.1094 30.4219C78.3385 30.151 78.5208 29.7969 78.6562 29.3594L79.9219 26.0938ZM78.0469 11.0938L81.7188 23.3438L82.3594 28.1094L79.2969 28.4375L73.2188 11.0938H78.0469ZM95.4375 14.7031V28H90.9375V11.0938H95.1562L95.4375 14.7031ZM94.7812 18.9531H93.5625C93.5625 17.7031 93.724 16.5781 94.0469 15.5781C94.3698 14.5677 94.8229 13.7083 95.4062 13C95.9896 12.2812 96.6823 11.7344 97.4844 11.3594C98.2969 10.974 99.2031 10.7812 100.203 10.7812C100.995 10.7812 101.719 10.8958 102.375 11.125C103.031 11.3542 103.594 11.7188 104.062 12.2188C104.542 12.7188 104.906 13.3802 105.156 14.2031C105.417 15.026 105.547 16.0312 105.547 17.2188V28H101.016V17.2031C101.016 16.4531 100.911 15.8698 100.703 15.4531C100.495 15.0365 100.188 14.7448 99.7812 14.5781C99.3854 14.401 98.8958 14.3125 98.3125 14.3125C97.7083 14.3125 97.1823 14.4323 96.7344 14.6719C96.2969 14.9115 95.9323 15.2448 95.6406 15.6719C95.3594 16.0885 95.1458 16.5781 95 17.1406C94.8542 17.7031 94.7812 18.3073 94.7812 18.9531ZM115.953 24.7969C116.505 24.7969 116.995 24.6927 117.422 24.4844C117.849 24.2656 118.182 23.9635 118.422 23.5781C118.672 23.1823 118.802 22.7188 118.812 22.1875H123.047C123.036 23.375 122.719 24.4323 122.094 25.3594C121.469 26.276 120.63 27 119.578 27.5312C118.526 28.0521 117.349 28.3125 116.047 28.3125C114.734 28.3125 113.589 28.0938 112.609 27.6562C111.641 27.2188 110.833 26.6146 110.188 25.8438C109.542 25.0625 109.057 24.1562 108.734 23.125C108.411 22.0833 108.25 20.9688 108.25 19.7812V19.3281C108.25 18.1302 108.411 17.0156 108.734 15.9844C109.057 14.9427 109.542 14.0365 110.188 13.2656C110.833 12.4844 111.641 11.875 112.609 11.4375C113.578 11 114.714 10.7812 116.016 10.7812C117.401 10.7812 118.615 11.0469 119.656 11.5781C120.708 12.1094 121.531 12.8698 122.125 13.8594C122.729 14.8385 123.036 16 123.047 17.3438H118.812C118.802 16.7812 118.682 16.2708 118.453 15.8125C118.234 15.3542 117.911 14.9896 117.484 14.7188C117.068 14.4375 116.552 14.2969 115.938 14.2969C115.281 14.2969 114.745 14.4375 114.328 14.7188C113.911 14.9896 113.589 15.3646 113.359 15.8438C113.13 16.3125 112.969 16.849 112.875 17.4531C112.792 18.0469 112.75 18.6719 112.75 19.3281V19.7812C112.75 20.4375 112.792 21.0677 112.875 21.6719C112.958 22.276 113.115 22.8125 113.344 23.2812C113.583 23.75 113.911 24.1198 114.328 24.3906C114.745 24.6615 115.286 24.7969 115.953 24.7969ZM130.156 14.7812V28H125.656V11.0938H129.891L130.156 14.7812ZM135.25 10.9844L135.172 15.1562C134.953 15.125 134.688 15.099 134.375 15.0781C134.073 15.0469 133.797 15.0312 133.547 15.0312C132.911 15.0312 132.359 15.1146 131.891 15.2812C131.432 15.4375 131.047 15.6719 130.734 15.9844C130.432 16.2969 130.203 16.6771 130.047 17.125C129.901 17.5729 129.818 18.0833 129.797 18.6562L128.891 18.375C128.891 17.2812 129 16.276 129.219 15.3594C129.438 14.4323 129.755 13.625 130.172 12.9375C130.599 12.25 131.12 11.7188 131.734 11.3438C132.349 10.9688 133.052 10.7812 133.844 10.7812C134.094 10.7812 134.349 10.8021 134.609 10.8438C134.87 10.875 135.083 10.9219 135.25 10.9844Z" fill="white"/>
</svg>
