<svg width="125" height="33" viewBox="0 0 125 33" fill="none" xmlns="http://www.w3.org/2000/svg">
<path fill-rule="evenodd" clip-rule="evenodd" d="M0 17.1407L0.001544 16.9804L0.00472794 16.82L0.00956001 16.6596L0.016032 16.4992L0.02416 16.3388L0.0339279 16.1784L0.045352 16.0181L0.058416 15.8578L0.0731359 15.6975L0.0895041 15.5373L0.10752 15.3773L0.127176 15.2173L0.148488 15.0574L0.171448 14.8978L0.196048 14.7382L0.222296 14.579L0.250192 14.4198L0.27972 14.2609L0.310896 14.1022L0.343712 13.9437L0.378168 13.7854L0.414248 13.6275L0.451976 13.4699L0.49132 13.3126L0.532304 13.1556L0.574904 12.9989L0.619136 12.8426L0.664984 12.6866L0.712448 12.5311L0.76152 12.376L0.812208 12.2213L0.864504 12.067L0.9184 11.9131L0.973888 11.7598L1.03098 11.6069L1.08965 11.4545L1.14991 11.3026L1.21175 11.1513L1.27517 11.0006L1.34015 10.8503L1.4067 10.7006L1.47482 10.5516L1.54448 10.4032L1.6157 10.2554L1.68846 10.1082L1.76275 9.96168L1.83858 9.81584L1.91593 9.67064L1.99479 9.52624L2.07517 9.38248L2.15706 9.23944L2.24043 9.0972L2.3253 8.95568L2.41166 8.81496L2.49949 8.67504L2.58878 8.53592L2.67954 8.39768L2.77176 8.26016L2.86542 8.1236L2.96051 7.98784L3.05703 7.85296L3.15497 7.71904L3.25432 7.58592L3.35507 7.45384L3.45722 7.32264L3.56075 7.19235L3.66566 7.06307L3.77193 6.93477L3.87955 6.80746L3.98853 6.68114L4.09884 6.55586L4.21047 6.43161L4.32342 6.3084L4.43769 6.18626L4.55324 6.06519L4.67008 5.9452L4.78819 5.82631L4.90757 5.70854L5.0282 5.59189L5.15007 5.47638L5.27318 5.36202L5.3975 5.24882L5.52302 5.13681L5.64975 5.02598L5.77766 4.91634L5.90674 4.80792L6.03698 4.70073L6.16838 4.59477L6.3009 4.49006L6.43456 4.3866L6.56928 4.28442L6.7052 4.18352L6.84216 4.08392L6.98016 3.98562L7.1192 3.88864L7.25936 3.79298L7.40048 3.69866L7.54264 3.60569L7.68584 3.51407L7.83008 3.42383L7.9752 3.33497L8.12136 3.24749L8.2684 3.16142L8.4164 3.07675L8.56536 2.9935L8.7152 2.91169L8.86592 2.8313L9.01752 2.75238L9.17 2.6749L9.32336 2.59889L9.47752 2.52435L9.63256 2.4513L9.78832 2.37974L9.94496 2.30968L10.1023 2.24113L10.2605 2.1741L10.4194 2.10859L10.579 2.04462L10.7393 1.98218L10.9003 1.9213L11.062 1.86196L11.2244 1.8042L11.3874 1.748L11.5511 1.69338L11.7154 1.64034L11.8802 1.5889L12.0458 1.53905L12.2118 1.49081L12.3784 1.44418L12.5456 1.39915L12.7133 1.35575L12.8814 1.31398L13.0501 1.27386L13.2193 1.23535L13.3889 1.1985L13.5589 1.1633L13.7294 1.12974L13.9002 1.09786L14.0715 1.06762L14.2432 1.03906L14.4152 1.01218L14.5875 0.98696L14.7602 0.963433L14.9331 0.941584L15.1064 0.921424L15.2799 0.902944L15.4537 0.886176L15.6277 0.871096L15.8019 0.857713L15.9763 0.846041L16.9142 0.79248L16.9678 5.31142L16.9984 5.31106L17.1279 5.31088L17.2574 5.31197L17.387 5.31433L17.5166 5.31797L17.6462 5.32288L17.7759 5.32906L17.9056 5.33652L18.0353 5.34526L18.1649 5.35527L18.2946 5.36657L18.4241 5.37914L18.5536 5.393L18.683 5.40813L18.8123 5.42454L18.9415 5.44222L19.0706 5.46118L19.1996 5.48143L19.3285 5.50295L19.4571 5.52574L19.5857 5.54982L19.714 5.57516L19.8421 5.60178L19.9701 5.62967L20.0978 5.65883L20.2252 5.68926L20.3525 5.72095L20.4794 5.75392L20.6061 5.78814L20.7325 5.82363L20.8586 5.86038L20.9844 5.89838L21.1098 5.93763L21.235 5.97815L21.3598 6.0199L21.4842 6.0629L21.6082 6.10715L21.7318 6.15263L21.855 6.19936L21.9778 6.24731L22.1002 6.2965L22.2222 6.34692L22.3436 6.39855L22.4646 6.45141L22.5852 6.50548L22.7052 6.56076L22.8247 6.61724L22.9438 6.67493L23.0622 6.73382L23.1802 6.7939L23.2975 6.85516L23.4143 6.91761L23.5306 6.98124L23.6462 7.04604L23.7612 7.11201L23.8756 7.17914L23.9894 7.24744L24.1025 7.31688L24.215 7.38744L24.3267 7.4592L24.4378 7.532L24.5482 7.606L24.658 7.68112L24.767 7.75728L24.8753 7.83464L24.9828 7.91304L25.0895 7.99256L25.1956 8.0732L25.3008 8.15488L25.4053 8.23768L25.5089 8.32144L25.6118 8.40632L25.7138 8.49232L25.815 8.57928L25.9154 8.66728L26.0149 8.75632L26.1134 8.8464L26.2112 8.93752L26.3081 9.0296L26.4041 9.12264L26.4991 9.21672L26.5933 9.31176L26.6865 9.40784L26.7788 9.5048L26.8701 9.60272L26.9605 9.7016L27.0498 9.80144L27.1382 9.90216L27.2257 10.0038L27.3121 10.1064L27.3975 10.2098L27.4819 10.3142L27.5653 10.4194L27.6476 10.5255L27.7289 10.6325L27.8091 10.7403L27.8882 10.849L27.9663 10.9585L28.0433 11.0688L28.1192 11.1798L28.194 11.2918L28.2677 11.4045L28.3402 11.518L28.4116 11.6322L28.4819 11.7472L28.551 11.863L28.619 11.9794L28.6858 12.0966L28.7515 12.2146L28.816 12.3332L28.8793 12.4525L28.9414 12.5725L29.0022 12.6931L29.0619 12.8144L29.1204 12.9364L29.1777 13.059L29.2337 13.1822L29.2885 13.306L29.342 13.4304L29.3942 13.5554L29.4453 13.681L29.495 13.8071L29.5435 13.9338L29.5907 14.061L29.6366 14.1887L29.6813 14.317L29.7246 14.4458L29.7667 14.575L29.8074 14.7047L29.8469 14.8349L29.885 14.9655L29.9218 15.0966L29.9572 15.2281L29.9914 15.36L30.0241 15.4922L30.0556 15.625L30.0857 15.758L30.1144 15.8914L30.1418 16.0251L30.1678 16.1593L30.1925 16.2937L30.2158 16.4284L30.2378 16.5634L30.2583 16.6986L30.2775 16.8342L30.2953 16.97L30.3117 17.1061L30.3267 17.2423L30.3403 17.3788L30.3526 17.5154L30.3634 17.6523L30.3729 17.7894L30.3809 17.9266L30.3875 18.0638L30.3928 18.2014L30.3966 18.3389L30.399 18.4766L30.4 18.6143L30.3996 18.7522L30.3978 18.8901L30.3945 19.0281L30.3898 19.166L30.3838 19.304L30.3763 19.442L30.3674 19.58L30.357 19.718L30.3453 19.8559L30.3321 19.9938L30.3175 20.1317L30.3014 20.2694L30.284 20.407L30.2652 20.5446L30.2449 20.682L30.2232 20.8193L30.2001 20.9564L30.1755 21.0934L30.1496 21.2302L30.1222 21.3668L30.0934 21.5032L30.0632 21.6394L30.0316 21.7754L29.9986 21.911L29.9642 22.0465L29.9283 22.1816L29.8911 22.3165L29.8525 22.451L29.8125 22.5853L29.771 22.7193L29.7282 22.8528L29.684 22.9861L29.6384 23.1189L29.5914 23.2514L29.543 23.3834L29.4933 23.515L29.4422 23.6462L29.3897 23.777L29.3358 23.9074L29.2806 24.0372L29.2241 24.1666L29.1662 24.2954L29.1069 24.4238L29.0462 24.5517L28.9843 24.679L28.921 24.8058L28.8564 24.9319L28.7904 25.0576L28.7232 25.1826L28.6546 25.307L28.5847 25.4308L28.5135 25.554L28.441 25.6766L28.3673 25.7984L28.2922 25.9197L28.2158 26.0402L28.1382 26.16L28.0594 26.2791L27.9793 26.3975L27.8979 26.5152L27.8153 26.6322L27.7314 26.7483L27.6463 26.8638L27.56 26.9784L27.4725 27.0922L27.3838 27.2052L27.2938 27.3174L27.2027 27.4288L27.1104 27.5393L27.0169 27.649L26.9222 27.7578L26.8264 27.8657L26.7294 27.9727L26.6314 28.0789L26.5322 28.1841L26.4318 28.2884L26.3303 28.3917L26.2277 28.4941L26.124 28.5955L26.0193 28.696L25.9134 28.7955L25.8066 28.894L25.6986 28.9915L25.5895 29.0879L25.4795 29.1834L25.3684 29.2778L25.2563 29.3712L25.1432 29.4634L25.0291 29.5547L24.914 29.6449L24.7979 29.7339L24.6809 29.8218L24.5629 29.9087L24.444 29.9945L24.3241 30.079L24.2033 30.1626L24.0816 30.2449L23.959 30.326L23.8355 30.406L23.7112 30.4849L23.586 30.5625L23.4599 30.639L23.333 30.7142L23.2052 30.7882L23.0767 30.861L22.9473 30.9326L22.8172 31.003L22.6862 31.072L22.5546 31.1398L22.4221 31.2065L22.2889 31.2718L22.155 31.3358L22.0203 31.3986L21.885 31.46L21.749 31.5202L21.6122 31.579L21.4749 31.6365L21.3369 31.6927L21.1982 31.7476L21.059 31.8011L20.919 31.8534L20.7786 31.9042L20.6374 31.9537L20.4958 32.0018L20.3537 32.0486L20.2109 32.0939L20.0676 32.1379L19.9238 32.1806L19.7796 32.2218L19.6348 32.2616L19.4896 32.3001L19.3438 32.337L19.1978 32.3726L19.0512 32.4069L18.9042 32.4396L18.7568 32.471L18.609 32.5009L18.4609 32.5294L18.3124 32.5564L18.1636 32.5819L18.0144 32.6061L17.865 32.6288L17.7151 32.65L17.5651 32.6698L17.4148 32.6881L17.2642 32.7049L17.1134 32.7202L16.9623 32.7342L16.8111 32.7466L16.6597 32.7575L16.5081 32.767L16.3562 32.775L16.2043 32.7814L16.0523 32.7864L15.9001 32.7899L15.7478 32.7919L15.5954 32.7925L15.443 32.7915L15.2906 32.789L15.138 32.7851L14.9854 32.7796L14.8329 32.7726L14.6803 32.7642L14.5278 32.7542L14.3753 32.7428L14.2229 32.7298L14.0705 32.7154L13.9182 32.6994L13.766 32.682L13.6139 32.663L13.4619 32.6426L13.3102 32.6206L13.1585 32.5971L13.007 32.5722L12.8558 32.5458L12.7046 32.5178L12.5538 32.4883L12.4032 32.4574L12.2529 32.425L12.1027 32.391L11.953 32.3557L11.8034 32.3188L11.6542 32.2804L11.5054 32.2406L11.3569 32.1993L11.2087 32.1565L11.0609 32.1122L10.9135 32.0665L10.7666 32.0193L10.62 31.9706L10.4738 31.9205L10.3282 31.8689L10.183 31.8159L10.0382 31.7614L9.894 31.7055L9.75032 31.6482L9.60712 31.5894L9.46448 31.5291L9.3224 31.4675L9.18088 31.4045L9.03992 31.34L8.8996 31.2741L8.75992 31.2068L8.62088 31.1381L8.4824 31.068L8.34464 30.9966L8.2076 30.9237L8.07112 30.8495L7.93544 30.7739L7.80048 30.697L7.66624 30.6186L7.53272 30.539L7.4 30.458L7.268 30.3756L7.1368 30.292L7.00648 30.207L6.87688 30.1207L6.74816 30.033L6.62032 29.9442L6.49328 29.854L6.36713 29.7625L6.24186 29.6698L6.1175 29.5757L5.99405 29.4804L5.87152 29.3839L5.74993 29.2861L5.6293 29.1871L5.50962 29.0869L5.39093 28.9854L5.27322 28.8828L5.15653 28.7789L5.04085 28.6738L4.9262 28.5677L4.81258 28.4602L4.70003 28.3518L4.58854 28.242L4.47813 28.1312L4.36881 28.0193L4.26059 27.9062L4.15349 27.792L4.04751 27.6767L3.94268 27.5603L3.83899 27.4429L3.73646 27.3244L3.63511 27.2048L3.53494 27.0842L3.43598 26.9626L3.33821 26.8399L3.24166 26.7162L3.14634 26.5916L3.05226 26.4659L2.95943 26.3393L2.86786 26.2117L2.77756 26.0831L2.68854 25.9537L2.60082 25.8233L2.51439 25.6919L2.42928 25.5598L2.34548 25.4266L2.26302 25.2926L2.1819 25.1578L2.10212 25.0221L2.02371 24.8856L1.94666 24.7482L1.87099 24.6101L1.79671 24.471L1.72382 24.3313L1.65234 24.1908L1.58226 24.0495L1.51361 23.9075L1.44638 23.7647L1.38059 23.6213L1.31625 23.477L1.25335 23.3322L1.19192 23.1866L1.13196 23.0405L1.07346 22.8936L1.01646 22.7461L0.960944 22.598L0.90692 22.4493L0.8544 22.3L0.803384 22.1502L0.753888 21.9997L0.70592 21.8487L0.659472 21.6972L0.614568 21.5452L0.5712 21.3926L0.529376 21.2396L0.489104 21.0862L0.450392 20.9322L0.41324 20.7778L0.377664 20.623L0.343656 20.4678L0.311224 20.3122L0.280376 20.1562L0.251112 19.9998L0.22344 19.8431L0.197368 19.6861L0.172888 19.5287L0.150016 19.371L0.128752 19.213L0.109104 19.0548L0.0910641 18.8963L0.0746401 18.7376L0.05984 18.5787L0.046664 18.4195L0.035112 18.2602L0.0251921 18.1006L0.0169041 17.941L0.010248 17.7811L0.00522404 17.6212L0.00184002 17.4611L0.000103951 17.301L0 17.1407ZM15.5025 5.40607L15.466 2.32591L15.4314 2.32926L15.2723 2.34618L15.1137 2.36465L14.9551 2.38468L14.7972 2.4062L14.6394 2.42929L14.4818 2.45392L14.3247 2.48006L14.1678 2.50777L14.0116 2.53691L13.8552 2.56769L13.6999 2.59985L13.5444 2.63363L13.3897 2.66885L13.2351 2.70563L13.0813 2.74382L12.9278 2.78355L12.7748 2.82476L12.6222 2.86746L12.4704 2.91158L12.3188 2.95723L12.168 3.0043L12.0176 3.05286L11.868 3.10276L11.7186 3.15424L11.5701 3.2071L11.4222 3.26135L11.2748 3.31709L11.1282 3.37418L10.9823 3.43266L10.8369 3.49263L10.6922 3.55397L10.5482 3.6167L10.405 3.68076L10.2625 3.74621L10.1208 3.81298L9.9796 3.88122L9.83944 3.9507L9.7 4.02154L9.56136 4.09372L9.42352 4.16723L9.28664 4.242L9.15032 4.31815L9.01488 4.39562L8.88064 4.4742L8.7468 4.55431L8.61424 4.63549L8.48256 4.71793L8.35152 4.80172L8.22152 4.88674L8.09248 4.97299L7.96464 5.06026L7.83728 5.14908L7.7112 5.23885L7.58608 5.32986L7.46184 5.42211L7.33872 5.51546L7.21672 5.60994L7.09544 5.70574L6.97552 5.80245L6.85648 5.90043L6.73856 5.99948L6.62168 6.09968L6.506 6.20084L6.39118 6.30328L6.27768 6.40663L6.16514 6.51118L6.05391 6.6166L5.9437 6.72317L5.8347 6.8307L5.72682 6.93929L5.61999 7.049L5.51456 7.15946L5.41031 7.27088L5.30699 7.3836L5.2051 7.49704L5.10446 7.61128L5.00486 7.72672L4.9067 7.84288L4.80962 7.96008L4.71386 8.07808L4.61934 8.19704L4.52606 8.3168L4.43416 8.43736L4.34346 8.5588L4.254 8.6812L4.16598 8.80416L4.07914 8.92816L3.99369 9.0528L3.90955 9.17824L3.82668 9.30448L3.74521 9.43144L3.66507 9.55904L3.58628 9.68744L3.5089 9.81648L3.43278 9.94632L3.35804 10.0769L3.28477 10.2079L3.21281 10.3397L3.14222 10.4722L3.07307 10.6052L3.00528 10.7389L2.93894 10.873L2.87399 11.0078L2.81047 11.1432L2.74834 11.2792L2.68767 11.4156L2.62838 11.5526L2.57054 11.6902L2.51418 11.8281L2.45923 11.9666L2.40572 12.1055L2.35368 12.2449L2.30308 12.3847L2.25398 12.5249L2.20629 12.6656L2.16008 12.8066L2.11535 12.9481L2.0721 13.0898L2.0303 13.232L1.99 13.3744L1.95118 13.5172L1.91382 13.6602L1.87796 13.8037L1.84359 13.9473L1.81071 14.0912L1.77932 14.2354L1.74942 14.3798L1.72102 14.5243L1.69411 14.6691L1.6687 14.8141L1.64479 14.9593L1.62238 15.1046L1.60147 15.25L1.58206 15.3956L1.56415 15.5413L1.54774 15.687L1.53284 15.833L1.51944 15.9789L1.50754 16.1248L1.49714 16.2709L1.48824 16.417L1.48084 16.563L1.47494 16.709L1.47054 16.855L1.46765 17.001L1.46624 17.147L1.46634 17.2929L1.46792 17.4386L1.471 17.5844L1.47557 17.73L1.48162 17.8754L1.48918 18.0208L1.4982 18.1659L1.50871 18.311L1.5207 18.4558L1.53418 18.6004L1.54911 18.7449L1.56553 18.889L1.58341 19.033L1.60275 19.1767L1.62356 19.3202L1.64583 19.4634L1.66954 19.6062L1.69472 19.7487L1.72134 19.891L1.74939 20.0328L1.77889 20.1744L1.80982 20.3155L1.84218 20.4563L1.87596 20.5967L1.91116 20.7367L1.94778 20.8763L1.9858 21.0154L2.02524 21.1541L2.06607 21.2923L2.1083 21.4301L2.15191 21.5674L2.1969 21.7041L2.24326 21.8403L2.29101 21.976L2.34011 22.1112L2.39056 22.2458L2.44239 22.3798L2.49554 22.5133L2.55002 22.6462L2.60586 22.7784L2.663 22.91L2.72147 23.041L2.78125 23.1714L2.84233 23.3011L2.9047 23.4302L2.96836 23.5585L3.0333 23.6862L3.09951 23.8131L3.16698 23.9394L3.23572 24.0649L3.3057 24.1896L3.37691 24.3136L3.44936 24.4369L3.52304 24.5593L3.5979 24.681L3.67401 24.8018L3.75128 24.9218L3.82976 25.0411L3.90942 25.1595L3.99022 25.277L4.07219 25.3938L4.15534 25.5096L4.23959 25.6246L4.32501 25.7386L4.4115 25.8518L4.49916 25.964L4.58786 26.0753L4.67769 26.1857L4.76862 26.2952L4.86056 26.4037L4.9536 26.5112L5.04767 26.6178L5.14282 26.7234L5.23896 26.8279L5.3361 26.9315L5.43428 27.0341L5.53344 27.1357L5.63362 27.2362L5.73474 27.3357L5.83685 27.4342L5.93987 27.5315L6.04385 27.6279L6.14878 27.7232L6.25462 27.8174L6.3613 27.9104L6.46896 28.0024L6.57752 28.0933L6.6868 28.183L6.79712 28.2718L6.90816 28.3592L7.02008 28.4456L7.1328 28.5309L7.2464 28.615L7.36072 28.6978L7.47584 28.7796L7.59168 28.8602L7.7084 28.9396L7.82576 29.0178L7.944 29.0948L8.0628 29.1706L8.1824 29.2452L8.30272 29.3186L8.4236 29.3908L8.54528 29.4618L8.66752 29.5314L8.79048 29.5999L8.914 29.6671L9.03824 29.7331L9.16296 29.7978L9.28832 29.8614L9.41432 29.9235L9.54088 29.9845L9.66792 30.0442L9.79552 30.1026L9.9236 30.1596L10.0523 30.2154L10.1814 30.2699L10.3111 30.3232L10.4412 30.3751L10.5718 30.4257L10.7028 30.475L10.8342 30.523L10.966 30.5697L11.0983 30.615L11.231 30.6591L11.364 30.7018L11.4973 30.7432L11.6311 30.7833L11.7651 30.822L11.8995 30.8594L12.0342 30.8954L12.1692 30.9302L12.3045 30.9635L12.4399 30.9955L12.5758 31.0262L12.7118 31.0555L12.8479 31.0835L12.9844 31.1102L13.121 31.1354L13.2578 31.1594L13.3948 31.1819L13.5319 31.2031L13.6692 31.223L13.8066 31.2414L13.9441 31.2586L14.0817 31.2744L14.2194 31.2888L14.3571 31.3019L14.495 31.3136L14.6328 31.324L14.7706 31.333L14.9086 31.3406L15.0464 31.3469L15.1842 31.3518L15.3221 31.3554L15.4599 31.3576L15.5976 31.3585L15.7353 31.358L15.8729 31.3562L16.0103 31.353L16.1477 31.3485L16.285 31.3426L16.4221 31.3354L16.559 31.3269L16.6958 31.317L16.8324 31.3058L16.9688 31.2933L17.105 31.2794L17.241 31.2642L17.3766 31.2477L17.5122 31.2298L17.6474 31.2106L17.7823 31.1902L17.917 31.1684L18.0514 31.1453L18.1854 31.1209L18.3191 31.0952L18.4525 31.0682L18.5855 31.0399L18.7182 31.0104L18.8504 30.9795L18.9823 30.9474L19.1138 30.914L19.2448 30.8793L19.3754 30.8434L19.5056 30.8062L19.6353 30.7677L19.7646 30.728L19.8933 30.6871L20.0216 30.6449L20.1494 30.6015L20.2765 30.5569L20.4033 30.511L20.5294 30.4639L20.655 30.4156L20.7801 30.3662L20.9045 30.3155L21.0283 30.2636L21.1516 30.2106L21.2742 30.1563L21.3962 30.101L21.5176 30.0444L21.6383 29.9866L21.7583 29.9278L21.8778 29.8678L21.9964 29.8066L22.1144 29.7444L22.2318 29.681L22.3482 29.6165L22.4641 29.5509L22.5791 29.4842L22.6936 29.4164L22.807 29.3476L22.92 29.2776L23.0319 29.2066L23.1431 29.1346L23.2536 29.0614L23.3633 28.9872L23.4719 28.9122L23.5798 28.8359L23.687 28.7587L23.7932 28.6806L23.8986 28.6013L24.003 28.5212L24.1068 28.4399L24.2094 28.3578L24.3112 28.2748L24.4122 28.1907L24.5122 28.1057L24.6112 28.0198L24.7094 27.933L24.8065 27.8453L24.9027 27.7566L24.998 27.6671L25.0922 27.5768L25.1855 27.4854L25.2778 27.3933L25.3691 27.3003L25.4594 27.2065L25.5486 27.1119L25.6368 27.0166L25.7242 26.9201L25.8102 26.8231L25.8954 26.7252L25.9794 26.6266L26.0625 26.5272L26.1444 26.4271L26.2252 26.3262L26.305 26.2246L26.3837 26.1223L26.4614 26.0192L26.5378 25.9155L26.6132 25.811L26.6876 25.7058L26.7606 25.6002L26.8326 25.4938L26.9034 25.3868L26.9732 25.279L27.0419 25.1706L27.1093 25.0618L27.1755 24.9524L27.2407 24.8421L27.3046 24.7316L27.3674 24.6203L27.429 24.5085L27.4894 24.3963L27.5486 24.2834L27.6067 24.1699L27.6634 24.0564L27.7191 23.9419L27.7736 23.827L27.8268 23.7118L27.8788 23.5962L27.9296 23.48L27.9791 23.3635L28.0275 23.2464L28.0746 23.129L28.1205 23.0114L28.1651 22.893L28.2085 22.7746L28.2507 22.6557L28.2917 22.5365L28.3314 22.4169L28.3697 22.2973L28.407 22.1768L28.4428 22.0565L28.4774 21.9358L28.5109 21.8149L28.543 21.6935L28.5738 21.5722L28.6035 21.4504L28.6318 21.3284L28.659 21.2063L28.6848 21.0839L28.7093 20.9616L28.7326 20.8387L28.7546 20.7162L28.7753 20.5931L28.7947 20.47L28.8129 20.3469L28.8298 20.2235L28.8454 20.1003L28.8598 19.9766L28.8729 19.8533L28.8847 19.7296L28.8952 19.6062L28.9045 19.4823L28.9125 19.359L28.9192 19.2352L28.9246 19.1114L28.9288 18.9878L28.9318 18.8646L28.9334 18.7408L28.9338 18.6173L28.9329 18.4939L28.9307 18.3706L28.9273 18.2474L28.9226 18.1246L28.9166 18.0013L28.9094 17.8786L28.901 17.7558L28.8913 17.6335L28.8803 17.511L28.8682 17.389L28.8547 17.2669L28.84 17.1452L28.8241 17.0236L28.807 16.9024L28.7885 16.7811L28.7689 16.6604L28.7481 16.5401L28.726 16.4197L28.7026 16.2997L28.6782 16.1802L28.6524 16.0606L28.6256 15.9418L28.5974 15.823L28.5682 15.7049L28.5375 15.5866L28.5058 15.4693L28.473 15.3521L28.4389 15.2351L28.4037 15.1189L28.3673 15.003L28.3296 14.8873L28.291 14.7724L28.251 14.6576L28.21 14.5435L28.1678 14.4297L28.1245 14.3166L28.0799 14.2038L28.0343 14.0915L27.9877 13.98L27.9399 13.869L27.8908 13.7581L27.841 13.6482L27.7897 13.5385L27.7375 13.4298L27.6842 13.3214L27.6298 13.2135L27.5744 13.1065L27.5178 12.9999L27.4602 12.8938L27.4018 12.7888L27.342 12.684L27.2814 12.5801L27.2195 12.4766L27.157 12.3742L27.093 12.2721L27.0284 12.1709L26.9626 12.0702L26.8958 11.9703L26.8282 11.8714L26.7594 11.7728L26.6898 11.6751L26.6192 11.5782L26.5476 11.4821L26.4751 11.3866L26.4017 11.292L26.3274 11.1981L26.2521 11.105L26.1759 11.0128L26.0988 10.9213L26.0208 10.8306L25.942 10.7408L25.8624 10.6518L25.7818 10.5637L25.7002 10.4762L25.6182 10.39L25.5349 10.3042L25.4511 10.2197L25.3664 10.1358L25.281 10.0529L25.1944 9.97064L25.1075 9.88968L25.0195 9.80936L24.9308 9.73L24.8416 9.65168L24.7515 9.57424L24.6604 9.49752L24.5688 9.42192L24.4766 9.34728L24.3835 9.2736L24.2898 9.2008L24.1955 9.1292L24.1002 9.05816L24.0046 8.98848L23.9082 8.91968L23.8111 8.85176L23.7136 8.78496L23.615 8.71896L23.5165 8.65432L23.4168 8.5904L23.3168 8.5276L23.216 8.46576L23.1148 8.40496L23.013 8.34528L22.9109 8.28672L22.8078 8.22888L22.7046 8.1724L22.6006 8.1168L22.4962 8.06232L22.3914 8.00896L22.286 7.95656L22.1802 7.9052L22.0739 7.85504L21.9671 7.80584L21.8601 7.75784L21.7525 7.7108L21.641 7.66344L21.5362 7.62016L21.4272 7.57632L21.3183 7.53384L21.2086 7.49216L21.0988 7.45184L20.9886 7.41248L20.8781 7.37432L20.7671 7.33712L20.6561 7.3012L20.5446 7.26632L20.4328 7.23256L20.321 7.2L20.2086 7.16845L20.0959 7.13798L19.9834 7.10876L19.8706 7.08065L19.757 7.05357L19.6439 7.02774L19.5302 7.00294L19.4166 6.97934L19.3025 6.95681L19.1886 6.93546L19.0743 6.91522L18.9602 6.89616L18.8454 6.87816L18.731 6.86135L18.6164 6.84566L18.5016 6.83109L18.3868 6.81766L18.272 6.80539L18.1571 6.79424L18.0422 6.78422L17.9271 6.77534L17.812 6.76758L17.6972 6.76097L17.5823 6.75549L17.467 6.75113L17.3524 6.74791L17.2375 6.74582L17.1227 6.74486L17.0078 6.74502L16.9847 6.74528L17.021 9.80304L17.0862 9.80272L17.1701 9.8032L17.254 9.80448L17.338 9.80664L17.4221 9.8096L17.5062 9.81344L17.5902 9.81808L17.6744 9.82352L17.7586 9.82984L17.8427 9.83696L17.9269 9.84496L18.011 9.85376L18.0951 9.86344L18.1792 9.87392L18.2632 9.8852L18.3472 9.89744L18.4311 9.9104L18.515 9.92424L18.5988 9.93896L18.6825 9.95448L18.7661 9.97088L18.8496 9.98808L18.933 10.0061L19.0163 10.025L19.0994 10.0447L19.1825 10.0653L19.2653 10.0866L19.348 10.1089L19.4306 10.1319L19.513 10.1558L19.5952 10.1806L19.6772 10.2061L19.759 10.2325L19.8406 10.2597L19.922 10.2878L20.0031 10.3166L20.0841 10.3463L20.1647 10.3768L20.2452 10.4082L20.3254 10.4403L20.4053 10.4733L20.4849 10.5071L20.5642 10.5417L20.6433 10.5771L20.722 10.6133L20.8004 10.6503L20.8786 10.6882L20.9563 10.7268L21.0338 10.7662L21.1109 10.8065L21.1876 10.8474L21.264 10.8893L21.34 10.9318L21.4156 10.9752L21.4909 11.0194L21.5658 11.0643L21.6402 11.11L21.7142 11.1565L21.7878 11.2038L21.861 11.2518L21.9337 11.3005L22.006 11.35L22.0778 11.4003L22.1492 11.4513L22.2201 11.503L22.2905 11.5556L22.3605 11.6088L22.4298 11.6628L22.4988 11.7175L22.5672 11.7729L22.6351 11.829L22.7025 11.8859L22.7694 11.9434L22.8357 12.0017L22.9014 12.0606L22.9666 12.1203L23.0312 12.1806L23.0953 12.2417L23.1587 12.3034L23.2216 12.3658L23.2839 12.4288L23.3456 12.4926L23.4067 12.5569L23.4671 12.6219L23.527 12.6876L23.5862 12.7539L23.6447 12.8208L23.7026 12.8884L23.7599 12.9566L23.8166 13.0254L23.8725 13.0948L23.9278 13.1648L23.9823 13.2354L24.0362 13.3066L24.0894 13.3785L24.1419 13.4508L24.1938 13.5238L24.2448 13.5973L24.2952 13.6714L24.3448 13.746L24.3937 13.8211L24.4418 13.8969L24.4893 13.9731L24.536 14.0498L24.5819 14.1271L24.627 14.205L24.6714 14.2832L24.715 14.362L24.7578 14.4413L24.7999 14.521L24.8412 14.6013L24.8816 14.682L24.9213 14.7632L24.9602 14.8448L24.9982 14.9268L25.0354 15.0094L25.0718 15.0922L25.1074 15.1756L25.1421 15.2594L25.176 15.3435L25.209 15.4281L25.2412 15.513L25.2726 15.5983L25.303 15.684L25.3327 15.7701L25.3615 15.8565L25.3894 15.9433L25.4164 16.0303L25.4426 16.1178L25.4678 16.2055L25.4922 16.2936L25.5157 16.382L25.5383 16.4706L25.56 16.5596L25.5808 16.6488L25.6007 16.7383L25.6197 16.8281L25.6378 16.9181L25.6549 17.0083L25.6711 17.0989L25.6865 17.1896L25.7009 17.2805L25.7143 17.3717L25.7269 17.463L25.7385 17.5545L25.7492 17.6462L25.7589 17.7382L25.7677 17.8302L25.7756 17.9224L25.7825 18.0147L25.7885 18.1072L25.7934 18.1998L25.7975 18.2925L25.8006 18.3854L25.8028 18.4782L25.804 18.5713L25.8042 18.6644L25.8035 18.7575L25.8018 18.8507L25.7992 18.944L25.7956 19.0374L25.791 19.1306L25.7855 19.224L25.779 19.3174L25.7716 19.4108L25.7631 19.5042L25.7538 19.5975L25.7434 19.6908L25.7321 19.7842L25.7198 19.8774L25.7065 19.9706L25.6922 20.0637L25.677 20.1567L25.6609 20.2497L25.6437 20.3426L25.6256 20.4354L25.6065 20.528L25.5864 20.6206L25.5654 20.713L25.5434 20.8052L25.5205 20.8973L25.4966 20.9893L25.4717 21.081L25.4458 21.1726L25.419 21.264L25.3913 21.3552L25.3626 21.4462L25.3328 21.537L25.3022 21.6275L25.2706 21.7178L25.2381 21.8079L25.2046 21.8977L25.1701 21.9872L25.1347 22.0765L25.0984 22.1654L25.0611 22.2542L25.0229 22.3425L24.9838 22.4306L24.9437 22.5183L24.9026 22.6057L24.8607 22.6927L24.8178 22.7794L24.774 22.8658L24.7293 22.9518L24.6837 23.0373L24.6371 23.1225L24.5897 23.2073L24.5414 23.2917L24.4921 23.3756L24.4419 23.4592L24.3909 23.5422L24.339 23.625L24.2861 23.7071L24.2324 23.7889L24.1778 23.8701L24.1223 23.9509L24.066 24.0312L24.0088 24.111L23.9507 24.1902L23.8918 24.269L23.8321 24.3473L23.7714 24.425L23.71 24.5021L23.6477 24.5787L23.5846 24.6547L23.5206 24.7302L23.4558 24.8051L23.3902 24.8794L23.3238 24.9531L23.2566 25.0262L23.1886 25.0987L23.1199 25.1706L23.0503 25.2418L22.98 25.3125L22.9088 25.3824L22.837 25.4518L22.7642 25.5204L22.6909 25.5883L22.6167 25.6557L22.5418 25.7222L22.4662 25.7882L22.3898 25.8534L22.3127 25.9179L22.2349 25.9818L22.1564 26.0448L22.0771 26.1071L21.9972 26.1687L21.9166 26.2296L21.8354 26.2897L21.7534 26.349L21.6708 26.4077L21.5875 26.4654L21.5036 26.5225L21.419 26.5787L21.3338 26.6342L21.2479 26.6888L21.1615 26.7426L21.0744 26.7956L20.9868 26.8478L20.8985 26.8992L20.8097 26.9497L20.7202 26.9994L20.6302 27.0482L20.5397 27.0962L20.4486 27.1434L20.3569 27.1896L20.2647 27.235L20.172 27.2795L20.0787 27.3231L19.985 27.3658L19.8907 27.4077L19.796 27.4486L19.7007 27.4886L19.605 27.5278L19.5089 27.566L19.4122 27.6033L19.3152 27.6397L19.2177 27.6751L19.1198 27.7096L19.0214 27.7431L18.9226 27.7758L18.8234 27.8074L18.7239 27.8381L18.624 27.8678L18.5237 27.8966L18.423 27.9244L18.322 27.9512L18.2206 27.977L18.119 28.0019L18.017 28.0258L17.9146 28.0487L17.812 28.0706L17.709 28.0915L17.6058 28.1114L17.5024 28.1304L17.3986 28.1483L17.2946 28.1652L17.1905 28.181L17.086 28.1959L16.9813 28.2098L16.8764 28.2226L16.7714 28.2344L16.6661 28.2452L16.5606 28.255L16.455 28.2637L16.3493 28.2714L16.2434 28.278L16.1373 28.2836L16.0311 28.2882L15.9248 28.2917L15.8184 28.2942L15.7119 28.2956L15.6053 28.296L15.4986 28.2954L15.392 28.2936L15.2852 28.2909L15.1784 28.287L15.0716 28.2822L14.9647 28.2762L14.8579 28.2693L14.751 28.2613L14.6442 28.2522L14.5374 28.242L14.4306 28.2308L14.3239 28.2186L14.2173 28.2053L14.1106 28.1909L14.0042 28.1754L13.8978 28.159L13.7914 28.1414L13.6852 28.1228L13.5791 28.1032L13.4732 28.0825L13.3674 28.0606L13.2618 28.0378L13.1563 28.014L13.051 27.989L12.9459 27.963L12.841 27.936L12.7363 27.9079L12.6318 27.8788L12.5277 27.8486L12.4237 27.8174L12.3199 27.7852L12.2165 27.7518L12.1134 27.7175L12.0104 27.6822L11.9078 27.6458L11.8056 27.6083L11.7036 27.5698L11.602 27.5303L11.5007 27.4898L11.3998 27.4482L11.2992 27.4057L11.199 27.3622L11.0993 27.3175L10.9998 27.2719L10.9009 27.2254L10.8023 27.1778L10.7042 27.1291L10.6064 27.0795L10.5092 27.029L10.4124 26.9774L10.3161 26.9248L10.2202 26.8713L10.1249 26.8167L10.03 26.7613L9.93568 26.7048L9.84184 26.6474L9.74856 26.589L9.65584 26.5297L9.56368 26.4694L9.47208 26.4082L9.38104 26.346L9.29056 26.283L9.20072 26.219L9.11144 26.154L9.0228 26.0882L8.93472 26.0214L8.84736 25.9537L8.76064 25.8851L8.67456 25.8156L8.58912 25.7453L8.50432 25.674L8.42024 25.6019L8.33688 25.5289L8.25416 25.455L8.17216 25.3803L8.09096 25.3048L8.0104 25.2284L7.93056 25.1511L7.85152 25.073L7.77328 24.9942L7.69576 24.9144L7.61896 24.8339L7.54296 24.7526L7.46784 24.6705L7.39344 24.5875L7.31984 24.5038L7.24712 24.4194L7.17512 24.3342L7.10408 24.2482L7.03376 24.1614L6.9644 24.0739L6.89584 23.9857L6.82816 23.8967L6.76136 23.807L6.69536 23.7167L6.63032 23.6256L6.56624 23.5338L6.50296 23.4414L6.44064 23.3482L6.37925 23.2545L6.31878 23.16L6.25923 23.0649L6.20064 22.9691L6.14299 22.8727L6.0863 22.7758L6.03058 22.6781L5.97582 22.5799L5.92204 22.481L5.86925 22.3817L5.81744 22.2817L5.76663 22.1811L5.71683 22.08L5.66804 21.9783L5.62026 21.8762L5.57351 21.7734L5.52778 21.6702L5.4831 21.5664L5.43945 21.4621L5.39684 21.3574L5.3553 21.2522L5.3148 21.1464L5.27537 21.0402L5.237 20.9337L5.19971 20.8266L5.1635 20.7191L5.12838 20.6112L5.09434 20.5029L5.06139 20.3942L5.02954 20.2851L4.9988 20.1757L4.96916 20.0658L4.94064 19.9556L4.91323 19.8451L4.88694 19.7342L4.86178 19.623L4.83774 19.5115L4.81483 19.3998L4.79306 19.2877L4.77243 19.1753L4.75294 19.0626L4.73461 18.9498L4.71742 18.8366L4.70138 18.7233L4.6865 18.6097L4.67278 18.4958L4.66022 18.3818L4.64882 18.2677L4.63858 18.1533L4.62953 18.0387L4.62164 17.9241L4.61492 17.8092L4.60938 17.6942L4.60502 17.5792L4.60185 17.464L4.59985 17.3487L4.59903 17.2333L4.59941 17.1178L4.60096 17.0023L4.60371 16.8868L4.60764 16.7712L4.61277 16.6555L4.61909 16.5399L4.62659 16.4242L4.6353 16.3086L4.64518 16.193L4.65627 16.0774L4.66856 15.9618L4.68203 15.8464L4.6967 15.731L4.71257 15.6156L4.72962 15.5003L4.74788 15.3852L4.76732 15.2702L4.78796 15.1553L4.80979 15.0405L4.83282 14.9258L4.85702 14.8114L4.88243 14.6971L4.90902 14.583L4.9368 14.4691L4.96576 14.3554L4.99591 14.242L5.02724 14.1287L5.05975 14.0158L5.09345 13.903L5.12831 13.7906L5.16436 13.6783L5.20158 13.5665L5.23996 13.4549L5.27952 13.3436L5.32024 13.2326L5.36212 13.122L5.40516 13.0118L5.44936 12.9018L5.49471 12.7923L5.54122 12.6832L5.58886 12.5744L5.63766 12.4661L5.68759 12.3582L5.73866 12.2506L5.79086 12.1436L5.8442 12.037L5.89866 11.9309L5.95423 11.8253L6.01092 11.7201L6.06873 11.6154L6.12764 11.5113L6.18765 11.4076L6.24876 11.3046L6.31097 11.202L6.37426 11.1L6.43864 10.9986L6.50408 10.8977L6.57064 10.7974L6.63816 10.6978L6.70688 10.5987L6.77656 10.5002L6.84728 10.4024L6.91912 10.3053L6.99192 10.2087L7.06584 10.1129L7.14072 10.0177L7.21664 9.9232L7.29352 9.82944L7.37144 9.73632L7.4504 9.64392L7.53032 9.55224L7.6112 9.46136L7.69312 9.3712L7.77592 9.28176L7.85976 9.19312L7.94456 9.1052L8.03024 9.01816L8.11688 8.93184L8.20448 8.84632L8.29304 8.76168L8.38248 8.67776L8.4728 8.5948L8.56408 8.51256L8.65624 8.43128L8.7492 8.3508L8.84312 8.2712L8.93792 8.19248L9.03352 8.11464L9.13 8.03768L9.22736 7.96168L9.32552 7.88656L9.42448 7.8124L9.52432 7.73912L9.62488 7.6668L9.72624 7.59544L9.82848 7.52504L9.93144 7.4556L10.0351 7.3872L10.1397 7.31968L10.2449 7.2532L10.3509 7.18771L10.4576 7.12322L10.565 7.05975L10.6731 6.9973L10.782 6.93588L10.8915 6.87549L11.0017 6.81615L11.1126 6.75786L11.2241 6.70063L11.3362 6.64446L11.449 6.58937L11.5625 6.53535L11.6766 6.48242L11.7912 6.43058L11.9065 6.37984L12.0223 6.33021L12.1387 6.28169L12.2557 6.23428L12.3731 6.188L12.4912 6.14285L12.6098 6.09883L12.7289 6.05596L12.8485 6.01423L12.9686 5.97366L13.0891 5.93424L13.2101 5.89599L13.3316 5.8589L13.4535 5.82299L13.5759 5.78826L13.6986 5.75471L13.8218 5.72235L13.9454 5.69118L14.0694 5.66122L14.1938 5.63246L14.3185 5.60489L14.4435 5.57854L14.5689 5.5534L14.6946 5.52949L14.8206 5.50679L14.947 5.48532L15.0736 5.46508L15.2005 5.44607L15.3276 5.4283L15.455 5.41177L15.5025 5.40607ZM15.5562 9.94136L15.5196 6.84999L15.4152 6.86458L15.303 6.88141L15.1906 6.89935L15.079 6.91832L14.9673 6.93845L14.8561 6.95961L14.7451 6.98186L14.6346 7.00514L14.5242 7.02954L14.4142 7.05501L14.3044 7.08153L14.1951 7.1091L14.0859 7.13777L13.981 7.1664L13.8693 7.19816L13.7614 7.22992L13.6539 7.26272L13.547 7.29648L13.4404 7.33136L13.3342 7.36728L13.2284 7.40416L13.1232 7.442L13.0184 7.48096L12.9141 7.5208L12.8102 7.56176L12.707 7.6036L12.6039 7.64656L12.5016 7.6904L12.3998 7.7352L12.2986 7.78096L12.1978 7.82776L12.0974 7.87552L11.998 7.92408L11.8987 7.97376L11.8005 8.02424L11.7024 8.07584L11.6053 8.12808L11.5083 8.1816L11.4123 8.23568L11.317 8.2908L11.2221 8.34688L11.1279 8.40376L11.0342 8.46168L10.9415 8.52024L10.8492 8.57984L10.7578 8.64024L10.667 8.70144L10.5768 8.7636L10.4872 8.82664L10.3986 8.89024L10.3106 8.95496L10.2232 9.0204L10.1366 9.08664L10.0509 9.1536L9.96568 9.22152L9.88144 9.29008L9.79792 9.35944L9.71504 9.42976L9.6332 9.50056L9.55192 9.57232L9.47144 9.6448L9.39184 9.71792L9.31312 9.79176L9.23496 9.86648L9.15792 9.94168L9.0816 10.0177L9.006 10.0945L8.93136 10.1718L8.85752 10.25L8.78456 10.3287L8.71248 10.4081L8.6412 10.4882L8.57072 10.569L8.50144 10.6502L8.4328 10.7322L8.36504 10.8148L8.29824 10.8979L8.2324 10.9816L8.16728 11.0661L8.1032 11.151L8.04 11.2365L7.97776 11.3226L7.9164 11.4092L7.85608 11.4962L7.79664 11.5839L7.73808 11.6722L7.68048 11.7609L7.62392 11.85L7.56832 11.9397L7.5136 12.03L7.45984 12.1206L7.40712 12.2117L7.35528 12.3033L7.30456 12.3951L7.25472 12.4876L7.20576 12.5806L7.158 12.6737L7.11112 12.7674L7.06528 12.8615L7.0204 12.9558L6.97656 13.0507L6.93368 13.1458L6.89184 13.2414L6.85096 13.3372L6.8112 13.4334L6.7724 13.5298L6.73456 13.6267L6.69776 13.7238L6.66208 13.8212L6.62728 13.919L6.59368 14.0168L6.56096 14.115L6.52936 14.2135L6.49872 14.3122L6.4692 14.4111L6.44064 14.5102L6.4132 14.6095L6.38673 14.7091L6.36132 14.8088L6.33696 14.9087L6.31365 15.0088L6.29137 15.109L6.27013 15.2094L6.24996 15.3098L6.23082 15.4104L6.21272 15.5112L6.19569 15.612L6.17968 15.713L6.16474 15.8138L6.15083 15.915L6.13798 16.0161L6.12618 16.1173L6.11542 16.2185L6.1057 16.3198L6.09704 16.421L6.08942 16.5222L6.08285 16.6236L6.07731 16.7249L6.07282 16.8261L6.06938 16.9273L6.06698 17.0284L6.06562 17.1295L6.06529 17.2306L6.066 17.3316L6.06775 17.4325L6.07054 17.5333L6.07434 17.6339L6.07919 17.7346L6.08506 17.835L6.09196 17.9353L6.09989 18.0355L6.10883 18.1355L6.1188 18.2354L6.12978 18.335L6.14178 18.4346L6.15479 18.5339L6.16881 18.633L6.18384 18.7319L6.19986 18.8305L6.2169 18.929L6.23493 19.0272L6.25394 19.125L6.27396 19.2228L6.29495 19.3202L6.31694 19.4174L6.33989 19.5141L6.36384 19.6106L6.38875 19.7069L6.41464 19.8028L6.44144 19.8983L6.46928 19.9936L6.498 20.0885L6.52776 20.183L6.5584 20.2773L6.59 20.371L6.62256 20.4644L6.656 20.5574L6.6904 20.6501L6.72576 20.7423L6.762 20.8341L6.79912 20.9254L6.8372 21.0164L6.87616 21.1069L6.91608 21.1969L6.9568 21.2865L6.99848 21.3755L7.04104 21.4642L7.0844 21.5523L7.12872 21.6399L7.17384 21.7271L7.21984 21.8138L7.26672 21.8998L7.3144 21.9854L7.36296 22.0705L7.41232 22.155L7.46256 22.2389L7.5136 22.3223L7.56544 22.4051L7.61808 22.4874L7.6716 22.5691L7.72576 22.6501L7.78088 22.7306L7.83664 22.8105L7.89328 22.8898L7.95064 22.9684L8.0088 23.0464L8.06768 23.1238L8.12736 23.2006L8.18768 23.2766L8.2488 23.3521L8.31064 23.4269L8.3732 23.501L8.43648 23.5744L8.50048 23.6473L8.56512 23.7193L8.63048 23.7907L8.69648 23.8614L8.7632 23.9314L8.83056 24.0006L8.89864 24.0692L8.96728 24.137L9.03664 24.2042L9.10664 24.2706L9.17712 24.3362L9.2484 24.4011L9.32016 24.4652L9.39256 24.5286L9.4656 24.5912L9.5392 24.653L9.61336 24.7142L9.68808 24.7744L9.76336 24.8339L9.8392 24.8926L9.9156 24.9506L9.99256 25.0078L10.0699 25.0641L10.1478 25.1196L10.2263 25.1743L10.3053 25.2282L10.3848 25.2814L10.4647 25.3336L10.5451 25.385L10.626 25.4357L10.7073 25.4854L10.789 25.5344L10.8713 25.5825L10.9538 25.6297L11.037 25.6761L11.1203 25.7216L11.2042 25.7663L11.2885 25.8102L11.373 25.853L11.4581 25.8952L11.5435 25.9364L11.6292 25.9768L11.7152 26.0162L11.8017 26.0549L11.8883 26.0926L11.9754 26.1294L12.0627 26.1654L12.1504 26.2004L12.2382 26.2346L12.3265 26.2678L12.415 26.3002L12.5037 26.3318L12.5926 26.3623L12.6819 26.3921L12.7714 26.4208L12.861 26.4487L12.951 26.4757L13.041 26.5018L13.1313 26.527L13.2218 26.5512L13.3124 26.5746L13.4032 26.597L13.4942 26.6186L13.5853 26.6392L13.6766 26.659L13.7679 26.6778L13.8594 26.6956L13.951 26.7126L14.0426 26.7286L14.1345 26.7438L14.2263 26.758L14.3182 26.7714L14.4102 26.7838L14.5022 26.7953L14.5943 26.8058L14.6864 26.8155L14.7786 26.8242L14.8707 26.8321L14.9629 26.839L15.055 26.845L15.1471 26.8501L15.2392 26.8543L15.3314 26.8576L15.4234 26.86L15.5153 26.8614L15.6072 26.862L15.699 26.8617L15.7908 26.8604L15.8825 26.8583L15.974 26.8553L16.0655 26.8514L16.1568 26.8465L16.248 26.8408L16.339 26.8342L16.43 26.8266L16.5207 26.8182L16.6114 26.809L16.7018 26.7988L16.7921 26.7878L16.8822 26.7758L16.972 26.7631L17.0617 26.7494L17.1511 26.7349L17.2402 26.7195L17.3293 26.7032L17.418 26.6861L17.5065 26.6682L17.5948 26.6493L17.6826 26.6296L17.7703 26.6091L17.8577 26.5877L17.9448 26.5655L18.0316 26.5425L18.1181 26.5186L18.2042 26.4938L18.2901 26.4683L18.3755 26.442L18.4606 26.4148L18.5455 26.3868L18.6299 26.358L18.714 26.3284L18.7977 26.298L18.881 26.2668L18.9638 26.2348L19.0463 26.202L19.1285 26.1684L19.2102 26.1341L19.2914 26.099L19.3722 26.0631L19.4526 26.0265L19.5326 25.989L19.6121 25.9509L19.691 25.9121L19.7697 25.8723L19.8477 25.832L19.9254 25.7908L20.0023 25.749L20.079 25.7065L20.1551 25.6632L20.2306 25.6192L20.3058 25.5745L20.3803 25.5291L20.4542 25.483L20.5278 25.4362L20.6006 25.3889L20.673 25.3407L20.745 25.2918L20.8162 25.2424L20.8867 25.1924L20.957 25.1415L21.0264 25.0902L21.0954 25.0382L21.1638 24.9854L21.2313 24.9322L21.2986 24.8782L21.3651 24.8237L21.4308 24.7686L21.4962 24.7127L21.5608 24.6565L21.6247 24.5997L21.6882 24.542L21.7508 24.4841L21.8129 24.4254L21.8743 24.3662L21.935 24.3066L21.995 24.2462L22.0545 24.1854L22.1132 24.1241L22.1711 24.0622L22.2285 23.9998L22.2852 23.937L22.341 23.8737L22.3964 23.8097L22.4509 23.7454L22.5046 23.6806L22.5578 23.6151L22.6102 23.5495L22.6618 23.4832L22.7128 23.4166L22.763 23.3494L22.8125 23.2818L22.8611 23.214L22.9092 23.1454L22.9564 23.0767L23.0029 23.0075L23.0487 22.9378L23.0935 22.868L23.1378 22.7976L23.1813 22.7268L23.224 22.6558L23.2658 22.5843L23.3071 22.5124L23.3474 22.4405L23.387 22.3678L23.4258 22.2951L23.4638 22.2221L23.5011 22.1485L23.5374 22.075L23.5732 22.0008L23.6079 21.9268L23.6422 21.852L23.6753 21.7774L23.7078 21.7021L23.7395 21.6269L23.7703 21.5514L23.8004 21.4755L23.8297 21.3994L23.858 21.3234L23.8858 21.2468L23.9125 21.1702L23.9385 21.0934L23.9637 21.0163L23.9881 20.939L24.0117 20.8617L24.0344 20.7842L24.0563 20.7065L24.0774 20.6287L24.0977 20.5507L24.1171 20.4726L24.1358 20.3946L24.1536 20.3161L24.1706 20.2377L24.1868 20.1592L24.2021 20.0807L24.2166 20.0021L24.2303 19.9231L24.2432 19.8445L24.2553 19.7656L24.2665 19.6866L24.2769 19.6078L24.2865 19.5289L24.2953 19.4497L24.3032 19.371L24.3104 19.2918L24.3167 19.2128L24.3222 19.134L24.3269 19.055L24.3307 18.9761L24.3338 18.8973L24.336 18.8182L24.3374 18.7397L24.338 18.6608L24.3378 18.5822L24.3368 18.5035L24.335 18.4252L24.3323 18.3467L24.3289 18.2684L24.3246 18.1904L24.3196 18.1122L24.3138 18.0342L24.3072 17.9566L24.2998 17.8787L24.2915 17.8014L24.2825 17.7238L24.2727 17.6467L24.2622 17.5697L24.2508 17.4927L24.2386 17.4161L24.2258 17.3397L24.2121 17.2634L24.1976 17.1874L24.1823 17.1114L24.1663 17.0358L24.1496 16.9606L24.1321 16.8854L24.1138 16.8103L24.0948 16.7359L24.075 16.6613L24.0545 16.5873L24.0332 16.5134L24.0112 16.4399L23.9885 16.3666L23.965 16.2935L23.9408 16.221L23.9159 16.1486L23.8902 16.0764L23.8639 16.0048L23.8368 15.9334L23.809 15.8624L23.7806 15.7916L23.7514 15.7211L23.7215 15.6513L23.6909 15.5815L23.6597 15.5123L23.6278 15.4435L23.5951 15.3749L23.5618 15.3066L23.5279 15.239L23.4932 15.1716L23.458 15.1048L23.4221 15.0384L23.3854 14.9721L23.3483 14.9066L23.3104 14.8413L23.2719 14.7766L23.2327 14.7121L23.1931 14.6483L23.1526 14.5847L23.1118 14.5218L23.0702 14.4594L23.028 14.3974L22.9851 14.3357L22.9418 14.2746L22.8979 14.2142L22.8533 14.1539L22.8082 14.0944L22.7625 14.0353L22.7164 13.9768L22.6695 13.9186L22.6222 13.8611L22.5742 13.8041L22.5258 13.7475L22.477 13.6917L22.4274 13.6362L22.3774 13.5814L22.3269 13.527L22.276 13.4734L22.2243 13.42L22.1724 13.3674L22.1198 13.3152L22.0668 13.2638L22.0134 13.2129L21.9595 13.1625L21.905 13.1126L21.8502 13.0635L21.7949 13.015L21.739 12.9668L21.683 12.9196L21.6263 12.8726L21.5693 12.8265L21.5118 12.781L21.4539 12.7358L21.3957 12.6915L21.3372 12.6479L21.278 12.6047L21.2184 12.5621L21.1588 12.5204L21.0984 12.479L21.0381 12.4386L20.9772 12.3986L20.9159 12.3593L20.8542 12.3206L20.7925 12.2826L20.7301 12.2452L20.6676 12.2086L20.6046 12.1724L20.5416 12.1371L20.4781 12.1024L20.4142 12.0682L20.3502 12.0348L20.2859 12.0022L20.2213 11.97L20.1563 11.9386L20.0913 11.9078L20.0261 11.8778L19.9602 11.8483L19.8946 11.8197L19.8285 11.7917L19.7621 11.7642L19.6956 11.7376L19.629 11.7117L19.5622 11.6864L19.4949 11.6617L19.4278 11.6378L19.3602 11.6146L19.2926 11.592L19.225 11.5702L19.157 11.549L19.0891 11.5286L19.0206 11.5087L18.9524 11.4897L18.884 11.4713L18.8154 11.4536L18.7468 11.4366L18.6778 11.4202L18.609 11.4046L18.5402 11.3898L18.4711 11.3755L18.4018 11.3619L18.333 11.3492L18.2636 11.337L18.1944 11.3256L18.1249 11.3148L18.0558 11.3048L17.9861 11.2954L17.9169 11.2868L17.8474 11.2788L17.778 11.2715L17.7086 11.265L17.6391 11.259L17.5699 11.2538L17.5003 11.2494L17.431 11.2455L17.3619 11.2424L17.2923 11.2399L17.2233 11.2382L17.1542 11.2371L17.0851 11.2367L17.0379 11.2369L17.0737 14.2572L17.095 14.2573L17.1347 14.2578L17.1745 14.2588L17.2143 14.2601L17.2542 14.2619L17.2941 14.2641L17.334 14.2666L17.374 14.2697L17.414 14.2731L17.4541 14.277L17.4942 14.2812L17.5342 14.2858L17.5744 14.291L17.6145 14.2965L17.6546 14.3024L17.6948 14.3088L17.735 14.3156L17.775 14.3228L17.8152 14.3305L17.8553 14.3385L17.8954 14.347L17.9354 14.3559L17.9755 14.3653L18.0154 14.375L18.0554 14.3852L18.0954 14.3958L18.1352 14.4069L18.175 14.4183L18.2148 14.4302L18.2545 14.4426L18.2941 14.4554L18.3337 14.4686L18.3731 14.4822L18.4126 14.4962L18.4518 14.5106L18.491 14.5255L18.5302 14.5408L18.5692 14.5566L18.6081 14.5727L18.6469 14.5893L18.6856 14.6063L18.7242 14.6238L18.7626 14.6416L18.801 14.6599L18.8391 14.6786L18.8772 14.6977L18.915 14.7173L18.9528 14.7372L18.9904 14.7576L19.0278 14.7784L19.0651 14.7996L19.1022 14.8212L19.1391 14.8432L19.1759 14.8657L19.2125 14.8886L19.2489 14.9118L19.285 14.9354L19.321 14.9595L19.3569 14.9841L19.3925 15.009L19.4278 15.0342L19.463 15.0599L19.498 15.086L19.5327 15.1125L19.5672 15.1394L19.6015 15.1666L19.6355 15.1943L19.6693 15.2223L19.7029 15.2508L19.7362 15.2796L19.7692 15.3088L19.802 15.3384L19.8345 15.3684L19.8667 15.3987L19.8986 15.4294L19.9304 15.4606L19.9618 15.492L19.9929 15.5238L20.0238 15.556L20.0542 15.5886L20.0845 15.6215L20.1144 15.6548L20.1441 15.6884L20.1734 15.7224L20.2023 15.7567L20.231 15.7914L20.2594 15.8264L20.2874 15.8618L20.315 15.8974L20.3424 15.9335L20.3694 15.9698L20.3961 16.0066L20.4223 16.0435L20.4483 16.0809L20.4739 16.1186L20.4991 16.1566L20.524 16.1948L20.5486 16.2334L20.5726 16.2723L20.5964 16.3115L20.6198 16.351L20.6427 16.3908L20.6654 16.4309L20.6875 16.4713L20.7094 16.5119L20.7308 16.5529L20.7518 16.5941L20.7724 16.6355L20.7926 16.6773L20.8123 16.7194L20.8317 16.7616L20.8506 16.8042L20.8692 16.847L20.8873 16.89L20.905 16.9333L20.9222 16.9768L20.939 17.0206L20.9554 17.0646L20.9713 17.1088L20.9867 17.1533L21.0018 17.1979L21.0163 17.2428L21.0304 17.2879L21.0441 17.3332L21.0573 17.3787L21.07 17.4245L21.0823 17.4703L21.0942 17.5164L21.1054 17.5627L21.1163 17.6092L21.1267 17.6558L21.1366 17.7026L21.1461 17.7496L21.155 17.7966L21.1634 17.844L21.1714 17.8914L21.179 17.939L21.1859 17.9867L21.1924 18.0346L21.1984 18.0826L21.2039 18.1307L21.209 18.179L21.2134 18.2273L21.2174 18.2758L21.221 18.3244L21.2239 18.373L21.2264 18.4218L21.2283 18.4707L21.2298 18.5197L21.2307 18.5687L21.2312 18.6178L21.231 18.667L21.2305 18.7162L21.2294 18.7656L21.2277 18.815L21.2255 18.8644L21.2228 18.9138L21.2196 18.9634L21.2158 19.0129L21.2115 19.0625L21.2067 19.1121L21.2014 19.1617L21.1955 19.2113L21.1891 19.261L21.1822 19.3106L21.1748 19.3602L21.1668 19.4098L21.1582 19.4594L21.1492 19.509L21.1396 19.5586L21.1295 19.6082L21.1188 19.6577L21.1076 19.7071L21.0959 19.7566L21.0836 19.8059L21.0708 19.8553L21.0575 19.9045L21.0436 19.9537L21.0292 20.0027L21.0142 20.0518L20.9988 20.1007L20.9828 20.1495L20.9662 20.1983L20.9492 20.247L20.9315 20.2954L20.9134 20.3439L20.8947 20.3922L20.8755 20.4404L20.8558 20.4884L20.8355 20.5363L20.8147 20.5841L20.7934 20.6318L20.7715 20.6792L20.7491 20.7265L20.7262 20.7737L20.7028 20.8206L20.6788 20.8674L20.6543 20.9141L20.6293 20.9605L20.6038 21.0067L20.5778 21.0528L20.5512 21.0986L20.5241 21.1443L20.4966 21.1897L20.4684 21.235L20.4398 21.2799L20.4107 21.3246L20.381 21.3692L20.351 21.4134L20.3203 21.4575L20.2892 21.5013L20.2575 21.5448L20.2254 21.5881L20.1928 21.631L20.1597 21.6738L20.1261 21.7162L20.092 21.7584L20.0574 21.8002L20.0224 21.8418L19.9869 21.8831L19.9508 21.9241L19.9143 21.9647L19.8774 22.0051L19.8399 22.0451L19.8021 22.0848L19.7637 22.1242L19.7249 22.1633L19.6856 22.2019L19.6459 22.2403L19.6057 22.2783L19.565 22.3159L19.524 22.3532L19.4825 22.3902L19.4406 22.4267L19.3982 22.4629L19.3554 22.4986L19.3121 22.5341L19.2684 22.5691L19.2243 22.6037L19.1798 22.6379L19.135 22.6718L19.0896 22.7052L19.0439 22.7382L18.9978 22.7707L18.9513 22.803L18.9043 22.8346L18.857 22.866L18.8094 22.8968L18.7613 22.9273L18.7128 22.9573L18.664 22.9868L18.6148 23.0158L18.5653 23.0445L18.5154 23.0726L18.465 23.1003L18.4145 23.1276L18.3635 23.1543L18.3122 23.1806L18.2606 23.2064L18.2086 23.2318L18.1563 23.2566L18.1037 23.2809L18.0508 23.3047L17.9975 23.328L17.944 23.3509L17.8902 23.3732L17.836 23.395L17.7815 23.4162L17.7268 23.437L17.6718 23.4573L17.6165 23.477L17.561 23.4962L17.5051 23.5149L17.449 23.533L17.3927 23.5506L17.3362 23.5676L17.2793 23.5842L17.2222 23.6001L17.165 23.6155L17.1074 23.6303L17.0497 23.6446L16.9917 23.6583L16.9335 23.6715L16.8751 23.6841L16.8166 23.6962L16.7578 23.7076L16.6988 23.7185L16.6397 23.7288L16.5803 23.7386L16.5209 23.7477L16.4612 23.7562L16.4014 23.7642L16.3414 23.7717L16.2814 23.7785L16.2211 23.7846L16.1607 23.7903L16.1002 23.7953L16.0396 23.7998L15.9788 23.8035L15.918 23.8068L15.857 23.8094L15.796 23.8114L15.7348 23.8128L15.6736 23.8136L15.6123 23.8138L15.551 23.8134L15.4895 23.8124L15.428 23.8107L15.3665 23.8085L15.3049 23.8056L15.2432 23.8021L15.1815 23.798L15.1198 23.7933L15.0582 23.7879L14.9964 23.7819L14.9347 23.7754L14.873 23.7681L14.8113 23.7602L14.7495 23.7518L14.6878 23.7427L14.6262 23.733L14.5646 23.7226L14.503 23.7117L14.4414 23.7001L14.3799 23.6879L14.3185 23.675L14.2571 23.6616L14.1958 23.6474L14.1346 23.6327L14.0734 23.6174L14.0124 23.6014L13.9515 23.5848L13.8906 23.5676L13.83 23.5498L13.7694 23.5313L13.7089 23.5122L13.6486 23.4925L13.5883 23.4722L13.5283 23.4512L13.4684 23.4296L13.4086 23.4074L13.3491 23.3846L13.2897 23.3611L13.2305 23.337L13.1714 23.3124L13.1126 23.2871L13.054 23.2612L12.9955 23.2347L12.9374 23.2076L12.8793 23.1798L12.8215 23.1515L12.764 23.1226L12.7067 23.093L12.6497 23.0629L12.5929 23.0322L12.5363 23.0008L12.4801 22.9689L12.424 22.9363L12.3683 22.9032L12.3129 22.8695L12.2578 22.8352L12.2029 22.8003L12.1483 22.7649L12.0941 22.7288L12.0402 22.6922L11.9866 22.655L11.9334 22.6172L11.8804 22.5789L11.8278 22.5399L11.7756 22.5005L11.7238 22.4605L11.6722 22.4198L11.6211 22.3787L11.5703 22.337L11.5199 22.2948L11.4699 22.252L11.4203 22.2086L11.3711 22.1648L11.3223 22.1204L11.2739 22.0754L11.2259 22.03L11.1784 21.984L11.1312 21.9375L11.0846 21.8905L11.0383 21.843L10.9925 21.7949L10.9471 21.7464L10.9022 21.6973L10.8578 21.6478L10.8138 21.5978L10.7704 21.5472L10.7274 21.4962L10.6848 21.4447L10.6428 21.3927L10.6013 21.3403L10.5602 21.2874L10.5197 21.2341L10.4797 21.1802L10.4402 21.126L10.4013 21.0713L10.3628 21.0161L10.3249 20.9605L10.2875 20.9045L10.2507 20.848L10.2145 20.7911L10.1787 20.7338L10.1436 20.6762L10.109 20.618L10.075 20.5595L10.0415 20.5006L10.0086 20.4413L9.97632 20.3816L9.94464 20.3215L9.91352 20.261L9.88296 20.2002L9.85304 20.1391L9.82376 20.0775L9.79504 20.0157L9.76696 19.9534L9.73952 19.8909L9.71264 19.8279L9.6864 19.7647L9.6608 19.7011L9.63584 19.6373L9.61152 19.573L9.58792 19.5086L9.56488 19.4438L9.54248 19.3787L9.52072 19.3134L9.49968 19.2477L9.47928 19.1818L9.45952 19.1156L9.4404 19.0491L9.422 18.9824L9.40432 18.9154L9.3872 18.8482L9.37088 18.7808L9.3552 18.7132L9.34016 18.6453L9.32584 18.5772L9.31224 18.5089L9.29928 18.4404L9.28704 18.3717L9.27552 18.3028L9.26472 18.2338L9.25456 18.1645L9.24512 18.0951L9.23648 18.0255L9.22848 17.9558L9.2212 17.8859L9.21464 17.8159L9.2088 17.7458L9.20368 17.6755L9.19928 17.6051L9.1956 17.5346L9.19264 17.4641L9.1904 17.3934L9.18896 17.3226L9.18824 17.2518L9.18816 17.1808L9.18888 17.1098L9.1904 17.0387L9.19256 16.9676L9.19552 16.8964L9.1992 16.8252L9.2036 16.754L9.20872 16.6827L9.21464 16.6114L9.22128 16.5402L9.22864 16.4689L9.2368 16.3976L9.24568 16.3263L9.25528 16.2551L9.26568 16.1839L9.2768 16.1127L9.28872 16.0416L9.30128 15.9705L9.31464 15.8994L9.3288 15.8285L9.34368 15.7576L9.35928 15.6868L9.3756 15.6161L9.39272 15.5455L9.41056 15.475L9.4292 15.4046L9.44856 15.3343L9.46864 15.2642L9.48944 15.1941L9.51104 15.1242L9.53336 15.0545L9.5564 14.9849L9.58024 14.9155L9.6048 14.8462L9.63008 14.7772L9.65608 14.7083L9.68288 14.6397L9.7104 14.5712L9.73864 14.5029L9.7676 14.4349L9.79728 14.367L9.82776 14.2994L9.85888 14.2321L9.8908 14.165L9.92336 14.0982L9.95672 14.0315L9.99072 13.9652L10.0255 13.8992L10.061 13.8334L10.0972 13.768L10.1341 13.7028L10.1717 13.6379L10.21 13.5734L10.249 13.5092L10.2887 13.4453L10.3292 13.3818L10.3703 13.3185L10.4121 13.2556L10.4546 13.1931L10.4978 13.131L10.5416 13.0692L10.5862 13.0078L10.6314 12.9468L10.6772 12.8862L10.7238 12.826L10.771 12.7662L10.8189 12.7068L10.8674 12.6478L10.9166 12.5893L10.9664 12.5311L11.0169 12.4734L11.068 12.4162L11.1198 12.3594L11.1722 12.3032L11.2252 12.2474L11.2789 12.192L11.3331 12.1371L11.388 12.0827L11.4435 12.0288L11.4996 11.9754L11.5563 11.9226L11.6136 11.8702L11.6714 11.8183L11.7299 11.767L11.789 11.7162L11.8486 11.6659L11.9089 11.6162L11.9696 11.5671L12.031 11.5185L12.0928 11.4705L12.1553 11.423L12.2182 11.3762L12.2818 11.3298L12.3458 11.2842L12.4104 11.239L12.4755 11.1945L12.5412 11.1506L12.6073 11.1073L12.6739 11.0646L12.7411 11.0226L12.8087 10.9811L12.8769 10.9403L12.9454 10.9002L13.0146 10.8606L13.0841 10.8218L13.1541 10.7835L13.2246 10.746L13.2954 10.7091L13.3668 10.6729L13.4386 10.6374L13.5108 10.6025L13.5834 10.5683L13.6565 10.5348L13.7299 10.502L13.8038 10.4699L13.8781 10.4385L13.9527 10.4078L14.0277 10.3778L14.1031 10.3486L14.1789 10.32L14.255 10.2922L14.3314 10.2651L14.4083 10.2387L14.4854 10.2131L14.563 10.1882L14.6407 10.1641L14.7189 10.1407L14.7973 10.1181L14.876 10.0962L14.955 10.0751L15.0343 10.0547L15.1139 10.0351L15.1938 10.0163L15.2739 9.99832L15.3542 9.98104L15.4349 9.96456L15.5157 9.94888L15.5562 9.94136ZM16.5498 15.7496L15.6277 15.9699L15.5735 11.4023L15.5301 11.4121L15.4646 11.4275L15.3993 11.4436L15.3344 11.4602L15.2696 11.4775L15.2052 11.4954L15.1408 11.5141L15.077 11.5331L15.0131 11.553L14.95 11.5732L14.8867 11.5942L14.8238 11.6158L14.7613 11.638L14.699 11.6607L14.6372 11.684L14.5755 11.708L14.5142 11.7325L14.4532 11.7575L14.3923 11.7833L14.3322 11.8094L14.2722 11.8362L14.2126 11.8635L14.1532 11.8915L14.0943 11.9199L14.0356 11.949L13.9775 11.9785L13.9197 12.0086L13.8622 12.0392L13.8052 12.0703L13.7485 12.102L13.6922 12.1342L13.6365 12.1669L13.5807 12.2002L13.5257 12.2339L13.4711 12.2682L13.4169 12.3029L13.363 12.3382L13.3096 12.3739L13.2566 12.4102L13.2041 12.4468L13.1521 12.4839L13.1003 12.5216L13.0491 12.5598L12.9984 12.5983L12.9481 12.6374L12.8983 12.6767L12.849 12.7166L12.8001 12.757L12.7516 12.7979L12.7038 12.839L12.6563 12.8807L12.6094 12.9227L12.5629 12.9652L12.5169 13.0082L12.4714 13.0514L12.4265 13.095L12.3819 13.1392L12.338 13.1836L12.2946 13.2285L12.2517 13.2736L12.2091 13.3194L12.1673 13.3652L12.1259 13.4115L12.085 13.4582L12.0448 13.5051L12.005 13.5526L11.9658 13.6001L11.927 13.6482L11.889 13.6965L11.8513 13.7452L11.8142 13.7942L11.7778 13.8434L11.7418 13.893L11.7064 13.9428L11.6715 13.993L11.6372 14.0434L11.6035 14.0942L11.5704 14.1451L11.5378 14.1963L11.5058 14.2479L11.4744 14.2996L11.4434 14.3518L11.4132 14.4038L11.3834 14.4564L11.3542 14.5091L11.3258 14.562L11.2978 14.6151L11.2704 14.6685L11.2435 14.7222L11.2174 14.7758L11.1917 14.8298L11.1666 14.8839L11.1422 14.9382L11.1183 14.9927L11.095 15.0474L11.0724 15.1022L11.0503 15.1572L11.0289 15.2123L11.0079 15.2676L10.9877 15.3229L10.968 15.3785L10.9489 15.4342L10.9304 15.4899L10.9125 15.5458L10.8952 15.6018L10.8785 15.6579L10.8625 15.714L10.847 15.7703L10.832 15.8267L10.8178 15.8831L10.8041 15.9396L10.791 15.9962L10.7785 16.0528L10.7666 16.1095L10.7554 16.1662L10.7446 16.2229L10.7346 16.2798L10.7251 16.3365L10.7162 16.3933L10.7079 16.4502L10.7002 16.507L10.6932 16.5639L10.6867 16.6206L10.6808 16.6775L10.6755 16.7345L10.6708 16.7912L10.6667 16.848L10.6632 16.9048L10.6602 16.9614L10.6579 17.0181L10.6562 17.0746L10.655 17.1313L10.6544 17.1878L10.6545 17.2442L10.655 17.3005L10.6562 17.3568L10.658 17.413L10.6603 17.469L10.6632 17.525L10.6667 17.5809L10.6708 17.6366L10.6754 17.6923L10.6806 17.7478L10.6864 17.8034L10.6927 17.8585L10.6996 17.9138L10.707 17.9686L10.7151 18.0236L10.7237 18.0782L10.7328 18.1328L10.7425 18.1873L10.7527 18.2414L10.7635 18.2955L10.7748 18.3493L10.7867 18.403L10.7991 18.4565L10.8121 18.5098L10.8255 18.5628L10.8396 18.6158L10.8541 18.6684L10.8691 18.721L10.8847 18.7731L10.9008 18.8252L10.9174 18.877L10.9346 18.9284L10.9522 18.9798L10.9704 19.0309L10.989 19.0816L11.0082 19.1322L11.0278 19.1826L11.048 19.2326L11.0686 19.2823L11.0897 19.3318L11.1114 19.381L11.1334 19.43L11.156 19.4786L11.179 19.527L11.2025 19.575L11.2266 19.6229L11.2509 19.6702L11.2758 19.7174L11.3011 19.7642L11.327 19.8107L11.3532 19.857L11.3798 19.9029L11.407 19.9483L11.4346 19.9936L11.4625 20.0385L11.4909 20.083L11.5198 20.1272L11.549 20.171L11.5786 20.2146L11.6086 20.2576L11.6391 20.3005L11.67 20.3429L11.7012 20.3849L11.733 20.4266L11.765 20.4679L11.7974 20.5088L11.8302 20.5494L11.8634 20.5896L11.8968 20.6293L11.9308 20.6687L11.965 20.7078L11.9996 20.7463L12.0347 20.7846L12.0699 20.8222L12.1056 20.8598L12.1416 20.8967L12.1778 20.9333L12.2146 20.9694L12.2515 21.0052L12.2888 21.0406L12.3264 21.0754L12.3643 21.1099L12.4026 21.144L12.441 21.1776L12.4798 21.2108L12.5189 21.2436L12.5582 21.2759L12.5979 21.3078L12.6379 21.3393L12.678 21.3702L12.7185 21.4008L12.7592 21.431L12.8002 21.4606L12.8414 21.4898L12.8828 21.5186L12.9245 21.547L12.9664 21.5748L13.0085 21.6022L13.0508 21.6291L13.0935 21.6557L13.1362 21.6816L13.1792 21.7072L13.2225 21.7323L13.2658 21.7569L13.3093 21.781L13.3532 21.8048L13.3971 21.828L13.4412 21.8507L13.4854 21.873L13.53 21.8948L13.5745 21.9161L13.6194 21.937L13.6642 21.9574L13.7092 21.9772L13.7545 21.9966L13.7998 22.0156L13.8452 22.0341L13.8908 22.0521L13.9365 22.0695L13.9824 22.0866L14.0282 22.1031L14.0743 22.1192L14.1203 22.1347L14.1665 22.1498L14.2128 22.1645L14.2592 22.1786L14.3056 22.1922L14.3521 22.2054L14.3987 22.2181L14.4454 22.2303L14.492 22.242L14.5387 22.2533L14.5854 22.264L14.6322 22.2742L14.6791 22.2841L14.726 22.2934L14.7729 22.3022L14.8198 22.3106L14.8667 22.3185L14.9137 22.3258L14.9606 22.3328L15.0074 22.3392L15.0544 22.3451L15.1013 22.3506L15.1482 22.3557L15.1951 22.3602L15.242 22.3642L15.2888 22.3678L15.3355 22.371L15.3823 22.3736L15.429 22.3758L15.4755 22.3775L15.5222 22.3787L15.5686 22.3795L15.615 22.3798L15.6614 22.3797L15.7077 22.3791L15.754 22.378L15.8002 22.3765L15.8461 22.3746L15.892 22.3721L15.938 22.3692L15.9836 22.3658L16.0293 22.3621L16.0747 22.3578L16.1202 22.3532L16.1654 22.348L16.2105 22.3425L16.2556 22.3365L16.3004 22.33L16.345 22.3231L16.3898 22.3158L16.4342 22.3081L16.4784 22.2999L16.5226 22.2913L16.5666 22.2822L16.6102 22.2728L16.6538 22.263L16.6973 22.2526L16.7406 22.2419L16.7836 22.2309L16.8265 22.2194L16.8691 22.2074L16.9118 22.195L16.954 22.1823L16.9959 22.1692L17.038 22.1556L17.0796 22.1417L17.121 22.1274L17.1622 22.1127L17.2032 22.0976L17.2441 22.0821L17.2846 22.0662L17.3249 22.05L17.365 22.0334L17.4048 22.0164L17.4445 21.999L17.4837 21.9814L17.5229 21.9633L17.5617 21.9449L17.6002 21.9261L17.6386 21.907L17.6765 21.8875L17.7143 21.8677L17.7518 21.8474L17.789 21.827L17.8259 21.8062L17.8626 21.785L17.899 21.7634L17.935 21.7416L17.9708 21.7194L18.0063 21.697L18.0415 21.6742L18.0765 21.6511L18.111 21.6278L18.1454 21.604L18.1794 21.58L18.213 21.5558L18.2463 21.5311L18.2794 21.5062L18.3121 21.481L18.3445 21.4556L18.3766 21.4298L18.4083 21.4039L18.4398 21.3777L18.4708 21.3511L18.5015 21.3243L18.532 21.2973L18.5621 21.2699L18.5918 21.2424L18.6211 21.2146L18.6502 21.1866L18.679 21.1582L18.7074 21.1298L18.7354 21.101L18.763 21.072L18.7902 21.0429L18.8173 21.0134L18.8438 20.9838L18.8701 20.9539L18.8959 20.9238L18.9214 20.8937L18.9466 20.8631L18.9713 20.8326L18.9958 20.8017L19.0198 20.7707L19.0434 20.7395L19.0668 20.7081L19.0897 20.6766L19.1122 20.6448L19.1345 20.6129L19.1562 20.581L19.1777 20.5486L19.1988 20.5163L19.2194 20.4838L19.2397 20.4512L19.2596 20.4184L19.2791 20.3854L19.2983 20.3524L19.317 20.3192L19.3354 20.2859L19.3534 20.2524L19.371 20.219L19.3882 20.1853L19.4051 20.1515L19.4216 20.1177L19.4377 20.0836L19.4534 20.0496L19.4686 20.0154L19.4835 19.9813L19.4981 19.9469L19.5122 19.9126L19.526 19.8779L19.5393 19.8436L19.5523 19.8087L19.5648 19.7744L19.577 19.7395L19.5889 19.7046L19.6002 19.6699L19.6113 19.635L19.6219 19.6002L19.6322 19.565L19.642 19.5303L19.6516 19.495L19.6606 19.4603L19.6694 19.4251L19.6777 19.3899L19.6856 19.355L19.6931 19.3201L19.7003 19.2847L19.7071 19.2498L19.7135 19.2145L19.7195 19.1796L19.7252 19.1446L19.7305 19.1094L19.7354 19.0743L19.7398 19.0393L19.744 19.0044L19.7478 18.9696L19.7511 18.9345L19.7542 18.8997L19.7568 18.8648L19.759 18.83L19.761 18.7953L19.7625 18.7606L19.7636 18.7262L19.7644 18.6914L19.7649 18.6568L19.765 18.6225L19.7646 18.5882L19.764 18.5539L19.763 18.5198L19.7616 18.4854L19.7598 18.4518L19.7578 18.4174L19.7554 18.3838L19.7526 18.3502L19.7494 18.3162L19.7459 18.2827L19.7422 18.2495L19.7379 18.2158L19.7334 18.1829L19.7286 18.1497L19.7234 18.117L19.7178 18.0839L19.712 18.0511L19.7058 18.0186L19.6994 17.9862L19.6925 17.9538L19.6853 17.9217L19.6778 17.8896L19.67 17.8578L19.6619 17.8262L19.6534 17.7943L19.6447 17.7631L19.6356 17.7316L19.6262 17.7006L19.6166 17.6697L19.6066 17.639L19.5962 17.6083L19.5856 17.5778L19.5748 17.5477L19.5636 17.5177L19.5521 17.4876L19.5403 17.458L19.5282 17.4282L19.516 17.3992L19.5033 17.3698L19.4905 17.341L19.4773 17.3123L19.4638 17.2837L19.4502 17.2554L19.4362 17.2272L19.4219 17.1992L19.4074 17.1715L19.3926 17.144L19.3777 17.1167L19.3624 17.0896L19.3468 17.0627L19.3311 17.0361L19.3151 17.0097L19.2988 16.9834L19.2823 16.9575L19.2656 16.9318L19.2486 16.9062L19.2314 16.8809L19.2141 16.8559L19.1964 16.831L19.1786 16.8065L19.1605 16.7822L19.1422 16.7581L19.1238 16.7342L19.105 16.7106L19.0861 16.6873L19.067 16.6642L19.0477 16.6413L19.0282 16.6186L19.0086 16.5963L18.9886 16.5742L18.9686 16.5524L18.9483 16.5307L18.9279 16.5094L18.9073 16.4884L18.8865 16.4675L18.8656 16.447L18.8445 16.4268L18.8233 16.4068L18.8017 16.387L18.7802 16.3675L18.7585 16.3482L18.7366 16.3294L18.7146 16.3106L18.6924 16.2923L18.6701 16.2742L18.6477 16.2563L18.6251 16.2387L18.6024 16.2214L18.5796 16.2044L18.5566 16.1876L18.5335 16.1711L18.5104 16.155L18.4871 16.139L18.4638 16.1234L18.4402 16.108L18.4166 16.0929L18.393 16.0781L18.369 16.0635L18.3452 16.0493L18.3213 16.0354L18.2972 16.0217L18.273 16.0082L18.2488 15.9951L18.2246 15.9822L18.2002 15.9697L18.1758 15.9574L18.1512 15.9454L18.1267 15.9337L18.1021 15.9223L18.0774 15.9111L18.0527 15.9002L18.0278 15.8896L18.0032 15.8794L17.9782 15.8694L17.9533 15.8596L17.9284 15.8502L17.9034 15.841L17.8785 15.8321L17.8534 15.8234L17.8284 15.815L17.8034 15.807L17.7783 15.7992L17.7532 15.7917L17.7282 15.7845L17.703 15.7775L17.678 15.7709L17.6529 15.7645L17.6278 15.7583L17.6026 15.7525L17.5776 15.7469L17.5525 15.7416L17.5274 15.7366L17.5025 15.7318L17.4775 15.7273L17.4524 15.723L17.4276 15.7191L17.4025 15.7154L17.3778 15.712L17.3528 15.7088L17.328 15.7059L17.3034 15.7033L17.2786 15.701L17.2539 15.6988L17.2293 15.697L17.2047 15.6954L17.1802 15.694L17.1557 15.693L17.1314 15.6922L17.107 15.6915L17.0828 15.6912L17.0586 15.6911L17.0345 15.6914L17.0104 15.6918L16.9865 15.6924L16.9626 15.6934L16.9389 15.6945L16.915 15.6959L16.8915 15.6975L16.868 15.6994L16.8446 15.7015L16.8213 15.7038L16.7979 15.7064L16.7749 15.7092L16.7518 15.7122L16.729 15.7155L16.7061 15.719L16.6834 15.7227L16.6608 15.7266L16.6385 15.7308L16.616 15.7352L16.5938 15.7398L16.5717 15.7446L16.5498 15.7496Z" fill="#94A3B8"/>
<path d="M48.8063 20.3276C48.8063 20.0229 48.7594 19.7495 48.6656 19.5073C48.5797 19.2573 48.4156 19.0308 48.1735 18.8276C47.9313 18.6167 47.5914 18.4097 47.1539 18.2065C46.7164 18.0034 46.15 17.7925 45.4547 17.5737C44.6813 17.3237 43.9469 17.0425 43.2516 16.73C42.5641 16.4175 41.9547 16.0542 41.4235 15.6401C40.9 15.2183 40.486 14.73 40.1813 14.1753C39.8844 13.6206 39.736 12.9761 39.736 12.2417C39.736 11.5308 39.8922 10.8862 40.2047 10.3081C40.5172 9.72217 40.9547 9.22217 41.5172 8.80811C42.0797 8.38623 42.7438 8.06201 43.5094 7.83545C44.2828 7.60889 45.1305 7.49561 46.0524 7.49561C47.3102 7.49561 48.4078 7.72217 49.3453 8.17529C50.2828 8.62842 51.0094 9.24951 51.525 10.0386C52.0485 10.8276 52.3102 11.73 52.3102 12.7456H48.818C48.818 12.2456 48.7125 11.8081 48.5016 11.4331C48.2985 11.0503 47.986 10.7495 47.5641 10.5308C47.15 10.312 46.6266 10.2026 45.9938 10.2026C45.3844 10.2026 44.8766 10.2964 44.4703 10.4839C44.0641 10.6636 43.7594 10.9097 43.5563 11.2222C43.3531 11.5269 43.2516 11.8706 43.2516 12.2534C43.2516 12.5425 43.3219 12.8042 43.4625 13.0386C43.611 13.2729 43.8297 13.4917 44.1188 13.6948C44.4078 13.8979 44.7633 14.0894 45.1852 14.269C45.6071 14.4487 46.0953 14.6245 46.65 14.7964C47.5797 15.0776 48.3961 15.394 49.0992 15.7456C49.8102 16.0972 50.4039 16.4917 50.8805 16.9292C51.3571 17.3667 51.7164 17.8628 51.9586 18.4175C52.2008 18.9722 52.3219 19.6011 52.3219 20.3042C52.3219 21.0464 52.1774 21.7104 51.8883 22.2964C51.5992 22.8823 51.1813 23.3784 50.6344 23.7847C50.0875 24.1909 49.4352 24.4995 48.6774 24.7104C47.9196 24.9214 47.0719 25.0269 46.1344 25.0269C45.2906 25.0269 44.4586 24.9175 43.6383 24.6987C42.818 24.4722 42.0719 24.1323 41.4 23.6792C40.736 23.2261 40.2047 22.6479 39.8063 21.9448C39.4078 21.2417 39.2086 20.4097 39.2086 19.4487H42.736C42.736 19.98 42.818 20.4292 42.9821 20.7964C43.1461 21.1636 43.3766 21.4604 43.6735 21.687C43.9781 21.9136 44.3375 22.0776 44.7516 22.1792C45.1735 22.2808 45.6344 22.3315 46.1344 22.3315C46.7438 22.3315 47.2438 22.2456 47.6344 22.0737C48.0328 21.9019 48.3258 21.6636 48.5133 21.3589C48.7086 21.0542 48.8063 20.7104 48.8063 20.3276ZM66.0914 14.6792V17.4214H57.1852V14.6792H66.0914ZM58.2281 7.72998V24.7925H54.7125V7.72998H58.2281ZM68.5992 7.72998V24.7925H65.0953V7.72998H68.5992ZM83.1071 22.0503V24.7925H74.025V22.0503H83.1071ZM75.1735 7.72998V24.7925H71.6578V7.72998H75.1735ZM81.9235 14.6792V17.3511H74.025V14.6792H81.9235ZM83.0953 7.72998V10.4839H74.025V7.72998H83.0953ZM96.1266 22.0503V24.7925H87.5367V22.0503H96.1266ZM88.6735 7.72998V24.7925H85.1578V7.72998H88.6735ZM109.111 22.0503V24.7925H100.521V22.0503H109.111ZM101.658 7.72998V24.7925H98.1422V7.72998H101.658ZM120.009 20.3276C120.009 20.0229 119.963 19.7495 119.869 19.5073C119.783 19.2573 119.619 19.0308 119.377 18.8276C119.134 18.6167 118.795 18.4097 118.357 18.2065C117.92 18.0034 117.353 17.7925 116.658 17.5737C115.884 17.3237 115.15 17.0425 114.455 16.73C113.767 16.4175 113.158 16.0542 112.627 15.6401C112.103 15.2183 111.689 14.73 111.384 14.1753C111.088 13.6206 110.939 12.9761 110.939 12.2417C110.939 11.5308 111.095 10.8862 111.408 10.3081C111.72 9.72217 112.158 9.22217 112.72 8.80811C113.283 8.38623 113.947 8.06201 114.713 7.83545C115.486 7.60889 116.334 7.49561 117.255 7.49561C118.513 7.49561 119.611 7.72217 120.548 8.17529C121.486 8.62842 122.213 9.24951 122.728 10.0386C123.252 10.8276 123.513 11.73 123.513 12.7456H120.021C120.021 12.2456 119.916 11.8081 119.705 11.4331C119.502 11.0503 119.189 10.7495 118.767 10.5308C118.353 10.312 117.83 10.2026 117.197 10.2026C116.588 10.2026 116.08 10.2964 115.673 10.4839C115.267 10.6636 114.963 10.9097 114.759 11.2222C114.556 11.5269 114.455 11.8706 114.455 12.2534C114.455 12.5425 114.525 12.8042 114.666 13.0386C114.814 13.2729 115.033 13.4917 115.322 13.6948C115.611 13.8979 115.966 14.0894 116.388 14.269C116.81 14.4487 117.298 14.6245 117.853 14.7964C118.783 15.0776 119.599 15.394 120.302 15.7456C121.013 16.0972 121.607 16.4917 122.084 16.9292C122.56 17.3667 122.92 17.8628 123.162 18.4175C123.404 18.9722 123.525 19.6011 123.525 20.3042C123.525 21.0464 123.38 21.7104 123.091 22.2964C122.802 22.8823 122.384 23.3784 121.838 23.7847C121.291 24.1909 120.638 24.4995 119.88 24.7104C119.123 24.9214 118.275 25.0269 117.338 25.0269C116.494 25.0269 115.662 24.9175 114.841 24.6987C114.021 24.4722 113.275 24.1323 112.603 23.6792C111.939 23.2261 111.408 22.6479 111.009 21.9448C110.611 21.2417 110.412 20.4097 110.412 19.4487H113.939C113.939 19.98 114.021 20.4292 114.185 20.7964C114.349 21.1636 114.58 21.4604 114.877 21.687C115.181 21.9136 115.541 22.0776 115.955 22.1792C116.377 22.2808 116.838 22.3315 117.338 22.3315C117.947 22.3315 118.447 22.2456 118.838 22.0737C119.236 21.9019 119.529 21.6636 119.716 21.3589C119.912 21.0542 120.009 20.7104 120.009 20.3276Z" fill="#94A3B8"/>
</svg>