<svg width="134" height="35" viewBox="0 0 134 35" fill="none" xmlns="http://www.w3.org/2000/svg">
<path d="M6.25 14.3438V34.5H1.75V11.0938H5.92188L6.25 14.3438ZM16.9531 19.3594V19.6875C16.9531 20.9167 16.8073 22.0573 16.5156 23.1094C16.2344 24.1615 15.8177 25.0781 15.2656 25.8594C14.7135 26.6302 14.026 27.2344 13.2031 27.6719C12.3906 28.099 11.4531 28.3125 10.3906 28.3125C9.35938 28.3125 8.46354 28.1042 7.70312 27.6875C6.94271 27.2708 6.30208 26.6875 5.78125 25.9375C5.27083 25.1771 4.85938 24.2969 4.54688 23.2969C4.23438 22.2969 3.99479 21.224 3.82812 20.0781V19.2188C3.99479 17.9896 4.23438 16.8646 4.54688 15.8438C4.85938 14.8125 5.27083 13.9219 5.78125 13.1719C6.30208 12.4115 6.9375 11.8229 7.6875 11.4062C8.44792 10.9896 9.33854 10.7812 10.3594 10.7812C11.4323 10.7812 12.375 10.9844 13.1875 11.3906C14.0104 11.7969 14.6979 12.3802 15.25 13.1406C15.8125 13.901 16.2344 14.8073 16.5156 15.8594C16.8073 16.9115 16.9531 18.0781 16.9531 19.3594ZM12.4375 19.6875V19.3594C12.4375 18.6406 12.375 17.9792 12.25 17.375C12.1354 16.7604 11.9479 16.224 11.6875 15.7656C11.4375 15.3073 11.1042 14.9531 10.6875 14.7031C10.2812 14.4427 9.78646 14.3125 9.20312 14.3125C8.58854 14.3125 8.0625 14.4115 7.625 14.6094C7.19792 14.8073 6.84896 15.0938 6.57812 15.4688C6.30729 15.8438 6.10417 16.2917 5.96875 16.8125C5.83333 17.3333 5.75 17.9219 5.71875 18.5781V20.75C5.77083 21.5208 5.91667 22.2135 6.15625 22.8281C6.39583 23.4323 6.76562 23.9115 7.26562 24.2656C7.76562 24.6198 8.42188 24.7969 9.23438 24.7969C9.82812 24.7969 10.3281 24.6667 10.7344 24.4062C11.1406 24.1354 11.4688 23.7656 11.7188 23.2969C11.9792 22.8281 12.1615 22.2865 12.2656 21.6719C12.3802 21.0573 12.4375 20.3958 12.4375 19.6875ZM28.875 24.1875V16.6562C28.875 16.1146 28.7865 15.651 28.6094 15.2656C28.4323 14.8698 28.1562 14.5625 27.7812 14.3438C27.4167 14.125 26.9427 14.0156 26.3594 14.0156C25.8594 14.0156 25.4271 14.1042 25.0625 14.2812C24.6979 14.4479 24.4167 14.6927 24.2188 15.0156C24.0208 15.3281 23.9219 15.6979 23.9219 16.125H19.4219C19.4219 15.4062 19.5885 14.724 19.9219 14.0781C20.2552 13.4323 20.7396 12.8646 21.375 12.375C22.0104 11.875 22.7656 11.4844 23.6406 11.2031C24.526 10.9219 25.5156 10.7812 26.6094 10.7812C27.9219 10.7812 29.0885 11 30.1094 11.4375C31.1302 11.875 31.9323 12.5312 32.5156 13.4062C33.1094 14.2812 33.4062 15.375 33.4062 16.6875V23.9219C33.4062 24.849 33.4635 25.6094 33.5781 26.2031C33.6927 26.7865 33.8594 27.2969 34.0781 27.7344V28H29.5312C29.3125 27.5417 29.1458 26.9688 29.0312 26.2812C28.9271 25.5833 28.875 24.8854 28.875 24.1875ZM29.4688 17.7031L29.5 20.25H26.9844C26.3906 20.25 25.875 20.3177 25.4375 20.4531C25 20.5885 24.6406 20.7812 24.3594 21.0312C24.0781 21.2708 23.8698 21.5521 23.7344 21.875C23.6094 22.1979 23.5469 22.5521 23.5469 22.9375C23.5469 23.3229 23.6354 23.6719 23.8125 23.9844C23.9896 24.2865 24.2448 24.526 24.5781 24.7031C24.9115 24.8698 25.3021 24.9531 25.75 24.9531C26.4271 24.9531 27.0156 24.8177 27.5156 24.5469C28.0156 24.276 28.401 23.9427 28.6719 23.5469C28.9531 23.151 29.099 22.776 29.1094 22.4219L30.2969 24.3281C30.1302 24.7552 29.901 25.1979 29.6094 25.6562C29.3281 26.1146 28.9688 26.5469 28.5312 26.9531C28.0938 27.349 27.5677 27.6771 26.9531 27.9375C26.3385 28.1875 25.6094 28.3125 24.7656 28.3125C23.6927 28.3125 22.7188 28.099 21.8438 27.6719C20.9792 27.2344 20.2917 26.6354 19.7812 25.875C19.2812 25.1042 19.0312 24.2292 19.0312 23.25C19.0312 22.3646 19.1979 21.5781 19.5312 20.8906C19.8646 20.2031 20.3542 19.625 21 19.1562C21.6562 18.6771 22.474 18.3177 23.4531 18.0781C24.4323 17.8281 25.5677 17.7031 26.8594 17.7031H29.4688ZM41.6406 26.0938L46.125 11.0938H50.9531L44.1562 30.5469C44.0104 30.974 43.8125 31.4323 43.5625 31.9219C43.3229 32.4115 42.9948 32.875 42.5781 33.3125C42.1719 33.7604 41.6562 34.125 41.0312 34.4062C40.4167 34.6875 39.6615 34.8281 38.7656 34.8281C38.3385 34.8281 37.9896 34.8021 37.7188 34.75C37.4479 34.6979 37.125 34.625 36.75 34.5312V31.2344C36.8646 31.2344 36.9844 31.2344 37.1094 31.2344C37.2344 31.2448 37.3542 31.25 37.4688 31.25C38.0625 31.25 38.5469 31.1823 38.9219 31.0469C39.2969 30.9115 39.599 30.7031 39.8281 30.4219C40.0573 30.151 40.2396 29.7969 40.375 29.3594L41.6406 26.0938ZM39.7656 11.0938L43.4375 23.3438L44.0781 28.1094L41.0156 28.4375L34.9375 11.0938H39.7656Z" fill="#369456"/>
<path d="M64.875 22.0469C64.875 21.6406 64.8125 21.276 64.6875 20.9531C64.5729 20.6198 64.3542 20.3177 64.0312 20.0469C63.7083 19.7656 63.2552 19.4896 62.6719 19.2188C62.0885 18.9479 61.3333 18.6667 60.4062 18.375C59.375 18.0417 58.3958 17.6667 57.4688 17.25C56.5521 16.8333 55.7396 16.349 55.0312 15.7969C54.3333 15.2344 53.7812 14.5833 53.375 13.8438C52.9792 13.1042 52.7812 12.2448 52.7812 11.2656C52.7812 10.3177 52.9896 9.45833 53.4062 8.6875C53.8229 7.90625 54.4062 7.23958 55.1562 6.6875C55.9062 6.125 56.7917 5.69271 57.8125 5.39062C58.8438 5.08854 59.974 4.9375 61.2031 4.9375C62.8802 4.9375 64.3438 5.23958 65.5938 5.84375C66.8438 6.44792 67.8125 7.27604 68.5 8.32812C69.1979 9.38021 69.5469 10.5833 69.5469 11.9375H64.8906C64.8906 11.2708 64.75 10.6875 64.4688 10.1875C64.1979 9.67708 63.7812 9.27604 63.2188 8.98438C62.6667 8.69271 61.9688 8.54688 61.125 8.54688C60.3125 8.54688 59.6354 8.67188 59.0938 8.92188C58.5521 9.16146 58.1458 9.48958 57.875 9.90625C57.6042 10.3125 57.4688 10.7708 57.4688 11.2812C57.4688 11.6667 57.5625 12.0156 57.75 12.3281C57.9479 12.6406 58.2396 12.9323 58.625 13.2031C59.0104 13.474 59.4844 13.7292 60.0469 13.9688C60.6094 14.2083 61.2604 14.4427 62 14.6719C63.2396 15.0469 64.3281 15.4688 65.2656 15.9375C66.2135 16.4062 67.0052 16.9323 67.6406 17.5156C68.276 18.099 68.7552 18.7604 69.0781 19.5C69.401 20.2396 69.5625 21.0781 69.5625 22.0156C69.5625 23.0052 69.3698 23.8906 68.9844 24.6719C68.599 25.4531 68.0417 26.1146 67.3125 26.6562C66.5833 27.1979 65.7135 27.6094 64.7031 27.8906C63.6927 28.1719 62.5625 28.3125 61.3125 28.3125C60.1875 28.3125 59.0781 28.1667 57.9844 27.875C56.8906 27.5729 55.8958 27.1198 55 26.5156C54.1146 25.9115 53.4062 25.1406 52.875 24.2031C52.3438 23.2656 52.0781 22.1562 52.0781 20.875H56.7812C56.7812 21.5833 56.8906 22.1823 57.1094 22.6719C57.3281 23.1615 57.6354 23.5573 58.0312 23.8594C58.4375 24.1615 58.9167 24.3802 59.4688 24.5156C60.0312 24.651 60.6458 24.7188 61.3125 24.7188C62.125 24.7188 62.7917 24.6042 63.3125 24.375C63.8438 24.1458 64.2344 23.8281 64.4844 23.4219C64.7448 23.0156 64.875 22.5573 64.875 22.0469ZM77.4844 26.0938L81.9688 11.0938H86.7969L80 30.5469C79.8542 30.974 79.6562 31.4323 79.4062 31.9219C79.1667 32.4115 78.8385 32.875 78.4219 33.3125C78.0156 33.7604 77.5 34.125 76.875 34.4062C76.2604 34.6875 75.5052 34.8281 74.6094 34.8281C74.1823 34.8281 73.8333 34.8021 73.5625 34.75C73.2917 34.6979 72.9688 34.625 72.5938 34.5312V31.2344C72.7083 31.2344 72.8281 31.2344 72.9531 31.2344C73.0781 31.2448 73.1979 31.25 73.3125 31.25C73.9062 31.25 74.3906 31.1823 74.7656 31.0469C75.1406 30.9115 75.4427 30.7031 75.6719 30.4219C75.901 30.151 76.0833 29.7969 76.2188 29.3594L77.4844 26.0938ZM75.6094 11.0938L79.2812 23.3438L79.9219 28.1094L76.8594 28.4375L70.7812 11.0938H75.6094ZM93 14.7031V28H88.5V11.0938H92.7188L93 14.7031ZM92.3438 18.9531H91.125C91.125 17.7031 91.2865 16.5781 91.6094 15.5781C91.9323 14.5677 92.3854 13.7083 92.9688 13C93.5521 12.2812 94.2448 11.7344 95.0469 11.3594C95.8594 10.974 96.7656 10.7812 97.7656 10.7812C98.5573 10.7812 99.2812 10.8958 99.9375 11.125C100.594 11.3542 101.156 11.7188 101.625 12.2188C102.104 12.7188 102.469 13.3802 102.719 14.2031C102.979 15.026 103.109 16.0312 103.109 17.2188V28H98.5781V17.2031C98.5781 16.4531 98.474 15.8698 98.2656 15.4531C98.0573 15.0365 97.75 14.7448 97.3438 14.5781C96.9479 14.401 96.4583 14.3125 95.875 14.3125C95.2708 14.3125 94.7448 14.4323 94.2969 14.6719C93.8594 14.9115 93.4948 15.2448 93.2031 15.6719C92.9219 16.0885 92.7083 16.5781 92.5625 17.1406C92.4167 17.7031 92.3438 18.3073 92.3438 18.9531ZM113.516 24.7969C114.068 24.7969 114.557 24.6927 114.984 24.4844C115.411 24.2656 115.745 23.9635 115.984 23.5781C116.234 23.1823 116.365 22.7188 116.375 22.1875H120.609C120.599 23.375 120.281 24.4323 119.656 25.3594C119.031 26.276 118.193 27 117.141 27.5312C116.089 28.0521 114.911 28.3125 113.609 28.3125C112.297 28.3125 111.151 28.0938 110.172 27.6562C109.203 27.2188 108.396 26.6146 107.75 25.8438C107.104 25.0625 106.62 24.1562 106.297 23.125C105.974 22.0833 105.812 20.9688 105.812 19.7812V19.3281C105.812 18.1302 105.974 17.0156 106.297 15.9844C106.62 14.9427 107.104 14.0365 107.75 13.2656C108.396 12.4844 109.203 11.875 110.172 11.4375C111.141 11 112.276 10.7812 113.578 10.7812C114.964 10.7812 116.177 11.0469 117.219 11.5781C118.271 12.1094 119.094 12.8698 119.688 13.8594C120.292 14.8385 120.599 16 120.609 17.3438H116.375C116.365 16.7812 116.245 16.2708 116.016 15.8125C115.797 15.3542 115.474 14.9896 115.047 14.7188C114.63 14.4375 114.115 14.2969 113.5 14.2969C112.844 14.2969 112.307 14.4375 111.891 14.7188C111.474 14.9896 111.151 15.3646 110.922 15.8438C110.693 16.3125 110.531 16.849 110.438 17.4531C110.354 18.0469 110.312 18.6719 110.312 19.3281V19.7812C110.312 20.4375 110.354 21.0677 110.438 21.6719C110.521 22.276 110.677 22.8125 110.906 23.2812C111.146 23.75 111.474 24.1198 111.891 24.3906C112.307 24.6615 112.849 24.7969 113.516 24.7969ZM127.719 14.7812V28H123.219V11.0938H127.453L127.719 14.7812ZM132.812 10.9844L132.734 15.1562C132.516 15.125 132.25 15.099 131.938 15.0781C131.635 15.0469 131.359 15.0312 131.109 15.0312C130.474 15.0312 129.922 15.1146 129.453 15.2812C128.995 15.4375 128.609 15.6719 128.297 15.9844C127.995 16.2969 127.766 16.6771 127.609 17.125C127.464 17.5729 127.38 18.0833 127.359 18.6562L126.453 18.375C126.453 17.2812 126.562 16.276 126.781 15.3594C127 14.4323 127.318 13.625 127.734 12.9375C128.161 12.25 128.682 11.7188 129.297 11.3438C129.911 10.9688 130.615 10.7812 131.406 10.7812C131.656 10.7812 131.911 10.8021 132.172 10.8438C132.432 10.875 132.646 10.9219 132.812 10.9844Z" fill="white"/>
</svg>