<svg width="133" height="33" viewBox="0 0 133 33" fill="none" xmlns="http://www.w3.org/2000/svg">
<path fill-rule="evenodd" clip-rule="evenodd" d="M16 32.7925C24.8366 32.7925 32 25.629 32 16.7925C32 7.95593 24.8366 0.79248 16 0.79248C7.16343 0.79248 0 7.95593 0 16.7925C0 25.629 7.16343 32.7925 16 32.7925ZM20.9915 8.24596C21.2344 7.38293 20.3969 6.87259 19.632 7.41752L8.9545 15.0241C8.12498 15.6151 8.25546 16.7925 9.1505 16.7925H11.9622V16.7707H17.442L12.977 18.3461L11.0086 25.339C10.7656 26.2021 11.6031 26.7124 12.368 26.1674L23.0455 18.5609C23.8751 17.9699 23.7445 16.7925 22.8496 16.7925H18.5857L20.9915 8.24596Z" fill="#94A3B8"/>
<path d="M53.8633 22.0503V24.7925H41.7696V22.0503H53.8633ZM53.6875 9.68701L43.3282 24.7925H40.8555V22.7769L51.2969 7.72998H53.6875V9.68701ZM52.4805 7.72998V10.4839H40.8672V7.72998H52.4805ZM55.0938 18.5815V18.3354C55.0938 17.4058 55.2266 16.5503 55.4922 15.769C55.7578 14.98 56.1446 14.2964 56.6524 13.7183C57.1602 13.1401 57.7852 12.6909 58.5274 12.3706C59.2696 12.0425 60.1211 11.8784 61.0821 11.8784C62.043 11.8784 62.8985 12.0425 63.6485 12.3706C64.3985 12.6909 65.0274 13.1401 65.5352 13.7183C66.0508 14.2964 66.4414 14.98 66.7071 15.769C66.9727 16.5503 67.1055 17.4058 67.1055 18.3354V18.5815C67.1055 19.5034 66.9727 20.3589 66.7071 21.1479C66.4414 21.9292 66.0508 22.6128 65.5352 23.1987C65.0274 23.7769 64.4024 24.2261 63.6602 24.5464C62.918 24.8667 62.0664 25.0269 61.1055 25.0269C60.1446 25.0269 59.2891 24.8667 58.5391 24.5464C57.7969 24.2261 57.168 23.7769 56.6524 23.1987C56.1446 22.6128 55.7578 21.9292 55.4922 21.1479C55.2266 20.3589 55.0938 19.5034 55.0938 18.5815ZM58.4688 18.3354V18.5815C58.4688 19.1128 58.5157 19.6089 58.6094 20.0698C58.7032 20.5308 58.8516 20.937 59.0547 21.2886C59.2657 21.6323 59.5391 21.9019 59.875 22.0972C60.211 22.2925 60.6211 22.3901 61.1055 22.3901C61.5742 22.3901 61.9766 22.2925 62.3125 22.0972C62.6485 21.9019 62.918 21.6323 63.1211 21.2886C63.3242 20.937 63.4727 20.5308 63.5664 20.0698C63.668 19.6089 63.7188 19.1128 63.7188 18.5815V18.3354C63.7188 17.8198 63.668 17.3354 63.5664 16.8823C63.4727 16.4214 63.3203 16.0151 63.1094 15.6636C62.9063 15.3042 62.6367 15.0229 62.3008 14.8198C61.9649 14.6167 61.5586 14.5151 61.0821 14.5151C60.6055 14.5151 60.1992 14.6167 59.8633 14.8198C59.5352 15.0229 59.2657 15.3042 59.0547 15.6636C58.8516 16.0151 58.7032 16.4214 58.6094 16.8823C58.5157 17.3354 58.4688 17.8198 58.4688 18.3354ZM68.6407 18.5815V18.3354C68.6407 17.4058 68.7735 16.5503 69.0391 15.769C69.3047 14.98 69.6914 14.2964 70.1992 13.7183C70.7071 13.1401 71.3321 12.6909 72.0742 12.3706C72.8164 12.0425 73.668 11.8784 74.6289 11.8784C75.5899 11.8784 76.4453 12.0425 77.1953 12.3706C77.9453 12.6909 78.5742 13.1401 79.0821 13.7183C79.5977 14.2964 79.9883 14.98 80.2539 15.769C80.5196 16.5503 80.6524 17.4058 80.6524 18.3354V18.5815C80.6524 19.5034 80.5196 20.3589 80.2539 21.1479C79.9883 21.9292 79.5977 22.6128 79.0821 23.1987C78.5742 23.7769 77.9492 24.2261 77.2071 24.5464C76.4649 24.8667 75.6133 25.0269 74.6524 25.0269C73.6914 25.0269 72.836 24.8667 72.086 24.5464C71.3438 24.2261 70.7149 23.7769 70.1992 23.1987C69.6914 22.6128 69.3047 21.9292 69.0391 21.1479C68.7735 20.3589 68.6407 19.5034 68.6407 18.5815ZM72.0157 18.3354V18.5815C72.0157 19.1128 72.0625 19.6089 72.1563 20.0698C72.25 20.5308 72.3985 20.937 72.6016 21.2886C72.8125 21.6323 73.086 21.9019 73.4219 22.0972C73.7578 22.2925 74.168 22.3901 74.6524 22.3901C75.1211 22.3901 75.5235 22.2925 75.8594 22.0972C76.1953 21.9019 76.4649 21.6323 76.668 21.2886C76.8711 20.937 77.0196 20.5308 77.1133 20.0698C77.2149 19.6089 77.2657 19.1128 77.2657 18.5815V18.3354C77.2657 17.8198 77.2149 17.3354 77.1133 16.8823C77.0196 16.4214 76.8672 16.0151 76.6563 15.6636C76.4532 15.3042 76.1836 15.0229 75.8477 14.8198C75.5117 14.6167 75.1055 14.5151 74.6289 14.5151C74.1524 14.5151 73.7461 14.6167 73.4102 14.8198C73.0821 15.0229 72.8125 15.3042 72.6016 15.6636C72.3985 16.0151 72.25 16.4214 72.1563 16.8823C72.0625 17.3354 72.0157 17.8198 72.0157 18.3354ZM86.1016 14.7378V24.7925H82.7149V12.1128H85.8907L86.1016 14.7378ZM85.6328 18.0073H84.6953C84.6953 17.1245 84.8008 16.312 85.0117 15.5698C85.2305 14.8198 85.5469 14.1714 85.961 13.6245C86.3828 13.0698 86.9024 12.6401 87.5196 12.3354C88.1367 12.0308 88.8516 11.8784 89.6641 11.8784C90.2266 11.8784 90.7422 11.9644 91.211 12.1362C91.6797 12.3003 92.0821 12.562 92.418 12.9214C92.7617 13.2729 93.0274 13.7339 93.2149 14.3042C93.4024 14.8667 93.4961 15.5425 93.4961 16.3315V24.7925H90.1211V16.7065C90.1211 16.1284 90.043 15.6831 89.8867 15.3706C89.7305 15.0581 89.5078 14.8394 89.2188 14.7144C88.9375 14.5894 88.5977 14.5269 88.1992 14.5269C87.7617 14.5269 87.3789 14.6167 87.0508 14.7964C86.7305 14.9761 86.4649 15.2261 86.2539 15.5464C86.043 15.8589 85.8867 16.2261 85.7852 16.6479C85.6836 17.0698 85.6328 17.5229 85.6328 18.0073ZM93.1797 17.6206L91.9727 17.7729C91.9727 16.9448 92.0742 16.1753 92.2774 15.4644C92.4883 14.7534 92.7969 14.1284 93.2032 13.5894C93.6172 13.0503 94.1289 12.6323 94.7383 12.3354C95.3477 12.0308 96.0508 11.8784 96.8477 11.8784C97.4571 11.8784 98.0117 11.9683 98.5117 12.1479C99.0117 12.3198 99.4375 12.5972 99.7891 12.98C100.148 13.355 100.422 13.8472 100.609 14.4565C100.805 15.0659 100.902 15.812 100.902 16.6948V24.7925H97.5157V16.6948C97.5157 16.1089 97.4375 15.6636 97.2813 15.3589C97.1328 15.0464 96.9141 14.8315 96.625 14.7144C96.3438 14.5894 96.0078 14.5269 95.6172 14.5269C95.211 14.5269 94.8555 14.6089 94.5508 14.7729C94.2461 14.9292 93.9922 15.1479 93.7891 15.4292C93.586 15.7104 93.4336 16.0386 93.3321 16.4136C93.2305 16.7808 93.1797 17.1831 93.1797 17.6206ZM109.352 25.0269C108.367 25.0269 107.484 24.8706 106.703 24.5581C105.922 24.2378 105.258 23.7964 104.711 23.2339C104.172 22.6714 103.758 22.019 103.469 21.2769C103.18 20.5269 103.035 19.73 103.035 18.8862V18.4175C103.035 17.4565 103.172 16.5776 103.445 15.7808C103.719 14.9839 104.109 14.2925 104.617 13.7065C105.133 13.1206 105.758 12.6714 106.492 12.3589C107.227 12.0386 108.055 11.8784 108.977 11.8784C109.875 11.8784 110.672 12.0269 111.367 12.3237C112.063 12.6206 112.645 13.0425 113.113 13.5894C113.59 14.1362 113.949 14.7925 114.191 15.5581C114.434 16.3159 114.555 17.1597 114.555 18.0894V19.4956H104.477V17.2456H111.238V16.9878C111.238 16.519 111.152 16.1011 110.98 15.7339C110.816 15.3589 110.566 15.062 110.23 14.8433C109.895 14.6245 109.465 14.5151 108.941 14.5151C108.496 14.5151 108.113 14.6128 107.793 14.8081C107.473 15.0034 107.211 15.2769 107.008 15.6284C106.813 15.98 106.664 16.394 106.563 16.8706C106.469 17.3394 106.422 17.855 106.422 18.4175V18.8862C106.422 19.394 106.492 19.8628 106.633 20.2925C106.781 20.7222 106.988 21.0933 107.254 21.4058C107.527 21.7183 107.855 21.9604 108.238 22.1323C108.629 22.3042 109.07 22.3901 109.563 22.3901C110.172 22.3901 110.738 22.2729 111.262 22.0386C111.793 21.7964 112.25 21.4331 112.633 20.9487L114.273 22.73C114.008 23.1128 113.645 23.48 113.184 23.8315C112.73 24.1831 112.184 24.4722 111.543 24.6987C110.902 24.9175 110.172 25.0269 109.352 25.0269ZM119.852 14.8784V24.7925H116.477V12.1128H119.652L119.852 14.8784ZM123.672 12.0308L123.613 15.1597C123.449 15.1362 123.25 15.1167 123.016 15.1011C122.789 15.0776 122.582 15.0659 122.395 15.0659C121.918 15.0659 121.504 15.1284 121.152 15.2534C120.809 15.3706 120.52 15.5464 120.285 15.7808C120.059 16.0151 119.887 16.3003 119.77 16.6362C119.66 16.9722 119.598 17.355 119.582 17.7847L118.902 17.5737C118.902 16.7534 118.984 15.9995 119.148 15.312C119.313 14.6167 119.551 14.0112 119.863 13.4956C120.184 12.98 120.574 12.5815 121.035 12.3003C121.496 12.019 122.023 11.8784 122.617 11.8784C122.805 11.8784 122.996 11.894 123.191 11.9253C123.387 11.9487 123.547 11.9839 123.672 12.0308ZM128.641 14.8784V24.7925H125.266V12.1128H128.441L128.641 14.8784ZM132.461 12.0308L132.402 15.1597C132.238 15.1362 132.039 15.1167 131.805 15.1011C131.578 15.0776 131.371 15.0659 131.184 15.0659C130.707 15.0659 130.293 15.1284 129.941 15.2534C129.598 15.3706 129.309 15.5464 129.074 15.7808C128.848 16.0151 128.676 16.3003 128.559 16.6362C128.449 16.9722 128.387 17.355 128.371 17.7847L127.691 17.5737C127.691 16.7534 127.773 15.9995 127.938 15.312C128.102 14.6167 128.34 14.0112 128.652 13.4956C128.973 12.98 129.363 12.5815 129.824 12.3003C130.285 12.019 130.813 11.8784 131.406 11.8784C131.594 11.8784 131.785 11.894 131.98 11.9253C132.176 11.9487 132.336 11.9839 132.461 12.0308Z" fill="#94A3B8"/>
</svg>