<svg width="24" height="25" viewBox="0 0 24 25" fill="none" xmlns="http://www.w3.org/2000/svg">
<rect y="0.79248" width="24" height="24" rx="12" fill="white"/>
<path d="M8.414 13.4496L12.364 17.3996C12.5417 17.589 12.6386 17.8401 12.6344 18.0998C12.6302 18.3595 12.5251 18.6074 12.3414 18.791C12.1577 18.9745 11.9098 19.0794 11.6501 19.0835C11.3904 19.0875 11.1393 18.9904 10.95 18.8126L5.293 13.1566C5.19981 13.0639 5.12586 12.9537 5.0754 12.8324C5.02494 12.7111 4.99896 12.581 4.99896 12.4496C4.99896 12.3182 5.02494 12.188 5.0754 12.0667C5.12586 11.9454 5.19981 11.8352 5.293 11.7426L10.95 6.08556C11.0422 5.99005 11.1526 5.91387 11.2746 5.86146C11.3966 5.80905 11.5278 5.78147 11.6606 5.78031C11.7934 5.77916 11.9251 5.80446 12.048 5.85474C12.1708 5.90502 12.2825 5.97927 12.3764 6.07317C12.4703 6.16706 12.5445 6.27871 12.5948 6.40161C12.6451 6.5245 12.6704 6.65618 12.6692 6.78896C12.6681 6.92174 12.6405 7.05296 12.5881 7.17497C12.5357 7.29697 12.4595 7.40731 12.364 7.49956L8.414 11.4496H18C18.2652 11.4496 18.5196 11.5549 18.7071 11.7425C18.8946 11.93 19 12.1843 19 12.4496C19 12.7148 18.8946 12.9691 18.7071 13.1567C18.5196 13.3442 18.2652 13.4496 18 13.4496H8.414Z" fill="#51B4FF"/>
</svg>
