<svg width="24" height="25" viewBox="0 0 24 25" fill="none" xmlns="http://www.w3.org/2000/svg">
<path d="M10.486 17.5224C10.3547 17.5226 10.2247 17.497 10.1034 17.4469C9.98206 17.3968 9.87182 17.3232 9.779 17.2304L5.537 12.9874C5.44143 12.8952 5.36517 12.7849 5.31268 12.6629C5.26018 12.541 5.23251 12.4098 5.23126 12.277C5.23001 12.1442 5.25522 12.0125 5.30542 11.8896C5.35561 11.7667 5.42978 11.655 5.52361 11.561C5.61744 11.467 5.72903 11.3927 5.85189 11.3423C5.97475 11.292 6.10641 11.2666 6.23919 11.2676C6.37197 11.2687 6.50321 11.2962 6.62525 11.3485C6.74729 11.4008 6.85769 11.4769 6.95 11.5724L10.485 15.1074L16.85 8.74437C17.0375 8.55673 17.2919 8.45127 17.5571 8.45117C17.8224 8.45108 18.0769 8.55637 18.2645 8.74387C18.4521 8.93138 18.5576 9.18575 18.5577 9.45102C18.5578 9.71629 18.4525 9.97073 18.265 10.1584L11.193 17.2304C11.1002 17.3232 10.9899 17.3968 10.8686 17.4469C10.7473 17.497 10.6173 17.5226 10.486 17.5224Z" fill="#15803D"/>
</svg>
