<svg width="48" height="49" viewBox="0 0 48 49" fill="none" xmlns="http://www.w3.org/2000/svg">
<rect y="0.79248" width="48" height="48" rx="10" fill="#329552"/>
<path d="M23 15.7925H19.8C18.1198 15.7925 17.2798 15.7925 16.638 16.1195C16.0735 16.4071 15.6146 16.866 15.327 17.4305C15 18.0722 15 18.9123 15 20.5925V28.9925C15 30.6726 15 31.5127 15.327 32.1545C15.6146 32.7189 16.0735 33.1779 16.638 33.4655C17.2798 33.7925 18.1198 33.7925 19.8 33.7925H28.2C29.8802 33.7925 30.7202 33.7925 31.362 33.4655C31.9265 33.1779 32.3854 32.7189 32.673 32.1545C33 31.5127 33 30.6726 33 28.9925V25.7925M24 20.7925H28V24.7925M27.5 16.2925V14.7925M31.4393 17.3531L32.5 16.2925M32.5103 21.2925H34.0103M15 26.1396C15.6519 26.2403 16.3199 26.2925 17 26.2925C21.3864 26.2925 25.2653 24.1201 27.6197 20.7925" stroke="white" stroke-width="2" stroke-linecap="round" stroke-linejoin="round"/>
</svg>