<svg width="48" height="49" viewBox="0 0 48 49" fill="none" xmlns="http://www.w3.org/2000/svg">
<rect y="0.79248" width="48" height="48" rx="10" fill="#329552"/>
<path d="M20.9996 26.7925C20.9996 26.7925 22.3121 28.2925 24.4996 28.2925C26.6871 28.2925 27.9996 26.7925 27.9996 26.7925M27.2496 21.7925H27.2596M21.7496 21.7925H21.7596M24.4996 32.7925C29.194 32.7925 32.9996 28.9869 32.9996 24.2925C32.9996 19.5981 29.194 15.7925 24.4996 15.7925C19.8052 15.7925 15.9996 19.5981 15.9996 24.2925C15.9996 25.2425 16.1555 26.1561 16.443 27.0091C16.5512 27.3301 16.6053 27.4906 16.6151 27.6139C16.6247 27.7357 16.6174 27.8211 16.5873 27.9394C16.5568 28.0593 16.4894 28.184 16.3547 28.4333L14.7191 31.4608C14.4857 31.8927 14.3691 32.1086 14.3952 32.2753C14.4179 32.4204 14.5034 32.5482 14.6288 32.6247C14.7728 32.7126 15.0169 32.6873 15.5052 32.6369L20.6262 32.1075C20.7813 32.0915 20.8588 32.0834 20.9295 32.0862C20.999 32.0888 21.0481 32.0953 21.1159 32.111C21.1848 32.1268 21.2714 32.1602 21.4448 32.227C22.3928 32.5923 23.4228 32.7925 24.4996 32.7925ZM27.7496 21.7925C27.7496 22.0686 27.5258 22.2925 27.2496 22.2925C26.9735 22.2925 26.7496 22.0686 26.7496 21.7925C26.7496 21.5163 26.9735 21.2925 27.2496 21.2925C27.5258 21.2925 27.7496 21.5163 27.7496 21.7925ZM22.2496 21.7925C22.2496 22.0686 22.0258 22.2925 21.7496 22.2925C21.4735 22.2925 21.2496 22.0686 21.2496 21.7925C21.2496 21.5163 21.4735 21.2925 21.7496 21.2925C22.0258 21.2925 22.2496 21.5163 22.2496 21.7925Z" stroke="white" stroke-width="2" stroke-linecap="round" stroke-linejoin="round"/>
</svg>