<svg width="48" height="49" viewBox="0 0 48 49" fill="none" xmlns="http://www.w3.org/2000/svg">
<rect y="0.79248" width="48" height="48" rx="10" fill="#329552"/>
<path d="M18.0944 24.0213C18.0322 23.6207 18 23.2103 18 22.7925C18 18.3742 21.6052 14.7925 26.0526 14.7925C30.4999 14.7925 34.1052 18.3742 34.1052 22.7925C34.1052 23.7906 33.9213 24.7459 33.5852 25.627C33.5154 25.81 33.4804 25.9015 33.4646 25.9729C33.4489 26.0437 33.4428 26.0935 33.4411 26.1659C33.4394 26.2391 33.4493 26.3197 33.4692 26.4808L33.8717 29.751C33.9153 30.105 33.9371 30.282 33.8782 30.4107C33.8266 30.5234 33.735 30.613 33.6211 30.662C33.4911 30.7179 33.3146 30.692 32.9617 30.6403L29.7765 30.1734C29.6101 30.149 29.527 30.1368 29.4512 30.1373C29.3763 30.1377 29.3245 30.1432 29.2511 30.1586C29.177 30.1742 29.0823 30.2097 28.893 30.2806C28.0097 30.6115 27.0524 30.7925 26.0526 30.7925C25.6344 30.7925 25.2237 30.7608 24.8227 30.6998M19.6316 34.7925C22.5965 34.7925 25 32.33 25 29.2925C25 26.2549 22.5965 23.7925 19.6316 23.7925C16.6667 23.7925 14.2632 26.2549 14.2632 29.2925C14.2632 29.9031 14.3603 30.4904 14.5395 31.0392C14.6153 31.2712 14.6532 31.3872 14.6657 31.4664C14.6786 31.5491 14.6809 31.5956 14.6761 31.6792C14.6714 31.7593 14.6514 31.8498 14.6113 32.0308L14 34.7925L16.9948 34.3835C17.1583 34.3612 17.24 34.35 17.3114 34.3505C17.3865 34.351 17.4264 34.3551 17.5001 34.3698C17.5701 34.3837 17.6742 34.4204 17.8823 34.4939C18.4306 34.6874 19.0191 34.7925 19.6316 34.7925Z" stroke="white" stroke-width="2" stroke-linecap="round" stroke-linejoin="round"/>
</svg>